<!-- sample rectangle -->
<svg xmlns="http://www.w3.org/2000/svg" xmlns:xlink="http://www.w3.org/1999/xlink" version="1.1" id="Layer_1" x="0px" y="0px" viewBox="0 0 38.8 36.6" style="enable-background:new 0 0 134.6 36.6;" xml:space="preserve">
<g>
	<g>
		<g>
			<defs>
				<path id="SVGID_1_" d="M38.1,21.4c-1.4,5.9-4.7,11-7.4,11.5c-2.7,0.5-3.8-3.8-2.5-9.7c1.4-5.9,4.7-11,7.4-11.5      C38.3,11.2,39.4,15.6,38.1,21.4z"/>
			</defs>
			<use xlink:href="#SVGID_1_" style="overflow:visible;fill:#F36D24;"/>
			<clipPath id="SVGID_2_">
				<use xlink:href="#SVGID_1_" style="overflow:visible;"/>
			</clipPath>
			<use xlink:href="#SVGID_1_" style="overflow:visible;fill:none;stroke:#FFFFFF;stroke-width:0.25;"/>
		</g>
	</g>
</g>
<g>
	<g>
		<g>
			<defs>
				<path id="SVGID_3_" d="M26.7,19.9c-2.2,7.5-6.5,13.3-9.4,13.1c-3-0.2-3.5-6.5-1.3-13.9c2.2-7.5,6.5-13.3,9.4-13.1      C28.3,6.2,28.9,12.5,26.7,19.9z"/>
			</defs>
			<use xlink:href="#SVGID_3_" style="overflow:visible;fill:#F36D24;"/>
			<clipPath id="SVGID_4_">
				<use xlink:href="#SVGID_3_" style="overflow:visible;"/>
			</clipPath>
			<use xlink:href="#SVGID_3_" style="overflow:visible;fill:none;stroke:#FFFFFF;stroke-width:0.25;"/>
		</g>
	</g>
</g>
<g>
	<g>
		<g>
			<defs>
				<path id="SVGID_5_" d="M13.8,17.8c-3.1,9.1-8.2,15.9-11.4,15.2c-3.2-0.7-3.2-8.7-0.1-17.7C5.4,6.1,10.5-0.7,13.7,0.1      C16.9,0.8,17,8.7,13.8,17.8z"/>
			</defs>
			<use xlink:href="#SVGID_5_" style="overflow:visible;fill:#F36D24;"/>
			<clipPath id="SVGID_6_">
				<use xlink:href="#SVGID_5_" style="overflow:visible;"/>
			</clipPath>
			<use xlink:href="#SVGID_5_" style="overflow:visible;fill:none;stroke:#FFFFFF;stroke-width:0.25;"/>
		</g>
	</g>
</g>
</svg>