<svg id="logo" xmlns="http://www.w3.org/2000/svg" viewBox="0 0 96.31 82.02"><defs><style>.cls-1{fill:#1ec373;}</style></defs><path class="cls-1" d="M95.06,51,84,44.58a2.5,2.5,0,1,0-2.5,4.33l7.35,4.24L48.16,76.63,7.5,53.16l16-9.26L34.13,50a28.17,28.17,0,0,0,28.05,0L95.06,31a2.47,2.47,0,0,0,1.25-2.16,2.5,2.5,0,0,0-1.25-2.17L49.41.33a2.53,2.53,0,0,0-2.5,0L1.25,26.7A2.52,2.52,0,0,0,0,28.87,2.5,2.5,0,0,0,1.25,31L18.54,41,1.25,51a2.5,2.5,0,0,0,0,4.33L46.91,81.69a2.51,2.51,0,0,0,1.25.33,2.54,2.54,0,0,0,1.25-.33L95.06,55.32a2.5,2.5,0,0,0,0-4.33Zm-35.38-5.3a23.14,23.14,0,0,1-23,0L28.53,41l8.1-4.68a23.14,23.14,0,0,1,23,0L67.78,41ZM7.5,28.87,48.16,5.39,88.81,28.86l-16,9.26L62.18,32a28.15,28.15,0,0,0-28,0l-10.6,6.13Z"/></svg>