<svg xmlns="http://www.w3.org/2000/svg" width="764" height="450" viewBox="0 0 764 450" version="1.1"><path d="M 104 159.500 L 104 233 113.575 233 L 123.151 233 122.825 172.750 L 122.500 112.500 129.345 124.455 C 138.338 140.161, 145.397 151.126, 175.241 195.750 L 200.153 233 211.077 233 L 222 233 222 159.500 L 222 86 211.858 86 L 201.715 86 202.377 138.250 C 202.741 166.988, 203.291 193.650, 203.600 197.500 L 204.161 204.500 198.228 194 C 188.504 176.791, 186.268 173.313, 156.273 128.773 L 127.500 86.046 115.750 86.023 L 104 86 104 159.500 M 258 159.510 L 258 233.021 302.750 232.760 L 347.500 232.500 347.500 224 L 347.500 215.500 313.250 215.237 L 279 214.974 279 189.487 L 279 164 309.500 164 L 340 164 340 156 L 340 148 309.500 148 L 279 148 279 125.500 L 279 103 311 103 L 343 103 343 94.500 L 343 86 300.500 86 L 258 86 258 159.510 M 359 94.500 L 359 103 382.493 103 L 405.985 103 406.243 167.750 L 406.500 232.500 417.500 232.500 L 428.500 232.500 428.757 167.750 L 429.015 103 452.507 103 L 476 103 476 94.500 L 476 86 417.500 86 L 359 86 359 94.500 M 56.304 208.956 C 49.546 213.077, 47.463 220.194, 50.924 227.343 C 53.458 232.578, 57.647 235.002, 64.151 234.996 C 74.985 234.987, 81.402 223.812, 76.173 214.062 C 72.639 207.472, 62.860 204.959, 56.304 208.956" stroke="none" fill="#0081bf" fill-rule="evenodd"/><path d="M 385 311 L 385 361 387.500 361 L 390 361 390 311 L 390 261 387.500 261 L 385 261 385 311 M 648.500 264.476 C 626.860 269.226, 613.990 281.603, 610.903 300.634 C 607.479 321.736, 619.793 340.992, 640.500 346.918 C 651.792 350.150, 672.260 350.100, 683.231 346.813 C 687.370 345.573, 687.489 345.046, 685.065 338.672 C 684.152 336.269, 684.116 336.263, 678.823 337.698 C 670.551 339.939, 654.853 339.644, 646.847 337.097 C 638.426 334.417, 631.249 328.235, 627.901 320.779 C 624.539 313.290, 624.493 299.714, 627.806 292.500 C 634.998 276.840, 654.106 269.774, 676.459 274.509 C 680.286 275.320, 683.712 275.649, 684.072 275.241 C 685.613 273.497, 686.987 267.587, 686.066 266.666 C 682.855 263.455, 659.387 262.086, 648.500 264.476 M 244.603 265.643 C 232.528 269.350, 226 276.848, 226 287.010 C 226 298.031, 233.188 304.472, 252.939 311.148 C 257.580 312.717, 262.865 315.013, 264.684 316.250 C 273.757 322.423, 272.550 333.657, 262.329 338.179 C 258.419 339.908, 256.241 340.153, 248.106 339.775 C 241.818 339.483, 236.498 338.602, 232.703 337.223 L 226.906 335.118 225.869 337.809 C 223.483 344.002, 224.058 345.343, 230 347.455 C 237.675 350.183, 260.098 350.339, 267.609 347.716 C 281.167 342.983, 288.270 329.763, 283.452 318.232 C 280.340 310.782, 275.161 307.016, 260.462 301.512 C 242.910 294.941, 240 292.735, 240 286 C 240 278.440, 246.801 274.058, 258.591 274.022 C 262.491 274.010, 267.891 274.670, 270.591 275.489 C 273.291 276.308, 275.994 276.983, 276.598 276.989 C 277.994 277.003, 281.251 268.850, 280.249 267.850 C 276.707 264.316, 253.587 262.884, 244.603 265.643 M 313.500 264.614 C 310.750 264.828, 307.038 265.248, 305.250 265.547 L 302 266.091 302 307.545 L 302 349 308.500 349 L 315 349 315 332.621 L 315 316.241 327.250 315.771 C 345.224 315.081, 355 310.602, 360.249 300.653 C 363.588 294.326, 363.388 284.010, 359.808 277.922 C 356.646 272.542, 351.388 268.788, 343.895 266.559 C 338.401 264.925, 322.542 263.910, 313.500 264.614 M 523 264.668 C 523 265.036, 530.313 283.935, 539.250 306.666 L 555.500 347.995 563.072 347.997 L 570.645 348 587.978 307.762 C 597.512 285.630, 605.525 266.709, 605.785 265.715 C 606.214 264.073, 605.581 263.934, 598.895 264.204 L 591.532 264.500 582.829 285.500 C 578.043 297.050, 571.752 312.727, 568.850 320.338 L 563.573 334.176 560.790 325.838 C 559.259 321.252, 553.436 305.462, 547.849 290.750 L 537.692 264 530.346 264 C 526.306 264, 523 264.301, 523 264.668 M 147.131 306.911 C 137.709 329.962, 130 349.107, 130 349.455 C 130 349.803, 133.225 349.955, 137.166 349.794 L 144.332 349.500 149.446 336.500 L 154.561 323.500 172.144 323.227 L 189.727 322.955 195.114 336.227 L 200.500 349.500 207.750 349.794 C 212.246 349.976, 215 349.696, 215 349.058 C 215 348.211, 189.885 286.387, 182.782 269.750 L 180.754 265 172.508 265 L 164.262 265 147.131 306.911 M 418.576 266.211 C 418.180 267.518, 411.963 343.029, 411.987 346.250 C 411.998 347.736, 412.981 348, 418.500 348 C 422.075 348, 425.006 347.663, 425.014 347.250 C 425.021 346.837, 425.919 334.575, 427.009 320 C 428.099 305.425, 429.016 290.125, 429.045 286 L 429.100 278.500 432.535 288 C 434.424 293.225, 440.589 308.857, 446.235 322.738 L 456.500 347.977 462 347.969 L 467.500 347.962 476.986 326.231 C 482.203 314.279, 488.778 298.780, 491.597 291.789 L 496.722 279.078 497.415 292.289 C 497.795 299.555, 498.754 314.500, 499.546 325.500 C 500.337 336.500, 500.988 346.063, 500.992 346.750 C 500.998 347.627, 503.034 348, 507.814 348 L 514.628 348 514.182 341.750 C 513.937 338.313, 512.559 319.750, 511.118 300.500 L 508.500 265.500 499.564 265.500 L 490.628 265.500 480.867 287.500 C 475.499 299.600, 469.395 314.110, 467.303 319.744 C 465.211 325.378, 463.275 329.990, 463 329.992 C 462.725 329.994, 461.025 325.835, 459.222 320.748 C 457.420 315.662, 451.546 301.150, 446.170 288.500 L 436.396 265.500 427.681 265.211 C 421.236 264.997, 418.865 265.257, 418.576 266.211 M 317.250 274.662 C 316.326 275.035, 316 279.182, 316 290.564 L 316 305.962 318.608 306.616 C 322.875 307.688, 336.421 306.348, 340.096 304.491 C 355.427 296.747, 353.537 278.640, 337.030 275.100 C 331.874 273.994, 319.580 273.722, 317.250 274.662 M 171.816 278.549 C 171.514 279.072, 170.525 281.750, 169.620 284.500 C 168.714 287.250, 165.761 294.900, 163.057 301.500 L 158.141 313.500 171.708 313.779 C 179.170 313.933, 185.482 313.851, 185.735 313.598 C 185.988 313.346, 183.268 305.795, 179.691 296.819 C 176.113 287.844, 173.002 279.847, 172.776 279.049 C 172.551 278.251, 172.119 278.026, 171.816 278.549" stroke="none" fill="#000000" fill-rule="evenodd"/></svg>