<svg width="30px" height="30px" viewBox="-7 0 76 76" version="1.1" xmlns="http://www.w3.org/2000/svg" xmlns:xlink="http://www.w3.org/1999/xlink">
                    <g stroke="none" stroke-width="1" fill="none" fill-rule="evenodd">
                        <path d="M60.5003315,43.96475 C61.6023315,43.96475 62.4963315,43.07075 62.4963315,41.96875 L62.4963315,23.05275 C62.4963315,22.33975 62.1163315,21.68075 61.4983315,21.32475 L31.9543315,4.26775 C31.3373315,3.91075 30.5763315,3.91075 29.9583315,4.26775 L23.9983315,7.70875 C23.0433315,8.25975 22.7163315,9.48075 23.2683315,10.43475 L42.0513315,42.96675 C42.4083315,43.58375 43.0663315,43.96475 43.7793315,43.96475 L60.5003315,43.96475 Z" fill="#0066FF" fill-rule="nonzero"></path>
                        <path d="M61.9196688,58.606 C62.5366688,58.249 62.9176688,57.591 62.9176688,56.878 L62.9176688,49.996 C62.9176688,48.894 62.0236688,48 60.9216688,48 L23.3566688,48 C22.6436688,48 21.9846688,48.38 21.6286688,48.998 L13.2676688,63.48 C12.7166688,64.435 13.0436688,65.655 13.9976688,66.206 L30.3796688,75.664 C30.9966688,76.021 31.7576688,76.021 32.3756688,75.664 L61.9196688,58.606 Z" fill="#0066FF" fill-rule="nonzero"></path>
                        <path d="M6.958,61.7383315 C7.913,62.2893315 9.133,61.9623315 9.684,61.0083315 L28.467,28.4763315 C28.824,27.8583315 28.824,27.0983315 28.467,26.4803315 L20.106,11.9983315 C19.555,11.0433315 18.334,10.7163315 17.38,11.2683315 L0.998,20.7263315 C0.38,21.0833315 0,21.7413315 0,22.4543315 L0,56.5683315 C0,57.2813315 0.38,57.9403315 0.998,58.2963315 L6.958,61.7383315 Z" fill="#0066FF" fill-rule="nonzero"></path>
                    </g>
                </svg>