<svg xmlns="http://www.w3.org/2000/svg" width="1024" height="768" viewBox="0 0 1024 768" version="1.1"><path d="M 0 384.001 L 0 768.002 512.250 767.751 L 1024.500 767.500 1024.751 383.750 L 1025.003 0 512.501 0 L 0 0 0 384.001 M 0.495 384.500 C 0.495 595.700, 0.610 681.951, 0.750 576.169 C 0.890 470.386, 0.890 297.586, 0.750 192.169 C 0.610 86.751, 0.495 173.300, 0.495 384.500 M 745 195.500 L 745 223.139 747.250 222.820 C 749.350 222.521, 749.509 221.981, 749.631 214.703 C 749.702 210.414, 749.954 206.713, 750.190 206.477 C 750.426 206.241, 754.110 209.862, 758.377 214.524 C 764.733 221.469, 766.664 223, 769.067 223 C 770.680 223, 772 222.653, 772 222.228 C 772 221.803, 768.175 217.651, 763.500 213 C 758.825 208.349, 755 204.230, 755 203.846 C 755 203.463, 758.263 199.690, 762.250 195.464 C 766.237 191.238, 769.650 187.379, 769.833 186.890 C 770.017 186.400, 769.041 186, 767.664 186 C 765.805 186, 763.306 188.056, 757.939 194 C 753.966 198.400, 750.442 202, 750.108 202.001 C 749.773 202.002, 749.500 194.464, 749.500 185.251 C 749.500 168.641, 749.481 168.497, 747.250 168.180 L 745 167.861 745 195.500 M 240 197 L 240 223 253 223 L 266 223 266 220.500 L 266 218 255 218 L 244 218 244 208.538 L 244 199.075 253.250 198.788 C 261.931 198.518, 262.519 198.364, 262.815 196.288 C 263.117 194.159, 262.783 194.066, 253.815 193.788 L 244.500 193.500 244.212 184.785 L 243.923 176.071 254.212 175.785 C 264.020 175.513, 264.515 175.395, 264.820 173.250 C 265.136 171.019, 265.033 171, 252.570 171 L 240 171 240 197 M 339.040 172.452 C 337.993 173.713, 337.993 174.287, 339.040 175.548 C 341.045 177.964, 344.500 176.984, 344.500 174 C 344.500 171.016, 341.045 170.036, 339.040 172.452 M 433 197 L 433 223 435.500 223 L 438 223 438 211.500 L 438 200 447.570 200 C 456.922 200, 457.132 199.949, 456.820 197.750 C 456.518 195.626, 455.980 195.484, 447.250 195.212 L 438 194.925 438 185.499 L 438 176.072 447.750 175.786 C 456.999 175.515, 457.516 175.384, 457.820 173.250 C 458.136 171.019, 458.033 171, 445.570 171 L 433 171 433 197 M 318.250 176.662 C 317.519 176.957, 317 178.973, 317 181.520 C 317 185.700, 316.871 185.886, 313.750 186.187 C 311.271 186.426, 310.500 186.975, 310.500 188.500 C 310.500 190.025, 311.271 190.574, 313.750 190.813 L 317 191.127 317.032 204.313 C 317.053 213.099, 317.470 218.030, 318.282 219.087 C 321.191 222.876, 327.724 224.243, 329.972 221.534 C 331.888 219.225, 330.670 217.611, 326.970 217.553 C 321.945 217.474, 320.941 214.745, 321.247 202 L 321.500 191.500 326.250 191.195 C 330.507 190.922, 331 190.642, 331 188.500 C 331 186.358, 330.507 186.078, 326.250 185.805 L 321.500 185.500 321.195 180.750 C 320.892 176.032, 320.649 175.694, 318.250 176.662 M 357.507 177.250 C 357.271 177.938, 356.947 180.075, 356.789 182 C 356.529 185.147, 356.172 185.532, 353.250 185.813 C 350.558 186.073, 350 186.545, 350 188.563 C 350 190.576, 350.496 191, 352.852 191 L 355.704 191 356.346 199.250 C 356.699 203.787, 356.991 209.883, 356.994 212.795 C 356.999 217.080, 357.469 218.560, 359.455 220.545 C 362.276 223.367, 368.013 223.894, 369.989 221.513 C 371.999 219.092, 370.576 217.262, 367.083 217.774 C 361.604 218.579, 361 217.155, 361 203.432 L 361 191.110 365.750 190.805 C 369.732 190.549, 370.500 190.177, 370.500 188.500 C 370.500 186.823, 369.732 186.451, 365.750 186.195 L 361 185.890 361 180.945 C 361 177.171, 360.637 176, 359.469 176 C 358.626 176, 357.744 176.563, 357.507 177.250 M 276 204.500 C 276 222.333, 276.072 223, 278 223 C 279.879 223, 280 222.333, 280 211.968 C 280 196.488, 282.785 191, 290.641 191 C 298.611 191, 300 193.886, 300 210.450 L 300 223 302.500 223 L 305 223 305 209.968 C 305 200.888, 304.563 195.891, 303.560 193.490 C 301.901 189.519, 296.787 186.009, 292.651 186.004 C 289.224 185.999, 283.018 188.790, 282.301 190.658 C 281.378 193.064, 280 192.072, 280 189 C 280 186.667, 279.556 186, 278 186 C 276.072 186, 276 186.667, 276 204.500 M 340 203.500 C 340 213.125, 339.982 221.338, 339.960 221.750 C 339.939 222.162, 340.839 222.644, 341.960 222.820 C 343.951 223.131, 344 222.697, 344 204.570 C 344 186.667, 343.928 186, 342 186 C 340.076 186, 340 186.667, 340 203.500 M 373 187.034 C 373 187.680, 375.503 194.574, 378.562 202.354 C 381.621 210.134, 384.592 217.716, 385.163 219.201 C 385.968 221.293, 385.799 222.961, 384.413 226.588 C 382.214 232.346, 379.501 235, 375.811 235 C 372.043 235, 371.854 238.495, 375.572 239.429 C 379.597 240.439, 384.478 236.812, 387.321 230.698 C 390.304 224.283, 405 187.630, 405 186.605 C 405 186.196, 404.023 186.005, 402.829 186.180 C 401.087 186.437, 399.849 188.571, 396.553 197 C 394.295 202.775, 391.825 209.412, 391.064 211.750 C 390.303 214.088, 389.348 216, 388.941 216 C 388.535 216, 386.953 212.512, 385.425 208.250 C 378.140 187.930, 377.483 186.511, 375.205 186.180 C 373.992 186.005, 373 186.389, 373 187.034 M 467.850 203 C 467.767 212.350, 467.655 220.563, 467.600 221.250 C 467.545 221.938, 468.512 222.644, 469.750 222.820 C 471.966 223.134, 472 222.975, 472 212.135 C 472 206.082, 472.480 199.863, 473.067 198.315 C 474.925 193.409, 477.948 191, 482.244 191 C 485.711 191, 486.104 190.753, 485.820 188.750 C 485.296 185.065, 480.099 185.171, 476.055 188.949 C 474.258 190.627, 472.611 192, 472.394 192 C 472.177 192, 472 190.650, 472 189 C 472 186.667, 471.556 186, 470 186 C 468.084 186, 467.994 186.717, 467.850 203 M 497.750 187.548 C 493.774 188.814, 493 189.463, 493 191.530 C 493 194.437, 492.956 194.425, 496.636 192.506 C 501.218 190.116, 507.646 190.555, 510.545 193.455 C 514.194 197.103, 513.793 199.786, 509.500 200.455 C 507.575 200.755, 504.313 201.266, 502.250 201.592 C 492.295 203.162, 488.054 207.990, 490.105 215.417 C 492.382 223.663, 503.579 225.476, 510.750 218.759 L 513 216.651 513 219.895 C 513 222.687, 513.313 223.095, 515.250 222.820 C 517.377 222.517, 517.517 221.981, 517.812 213 C 517.984 207.775, 517.835 201.104, 517.481 198.175 C 516.239 187.902, 508.955 183.979, 497.750 187.548 M 528.443 187.287 C 528.172 187.994, 528.074 196.207, 528.225 205.537 C 528.496 222.272, 528.530 222.504, 530.750 222.820 C 532.979 223.136, 533 223.024, 533 210.792 C 533 198.066, 533.638 195.683, 537.954 192.282 C 540.622 190.179, 545.849 190.758, 548.545 193.455 C 550.878 195.787, 551 196.504, 551 207.873 C 551 221.198, 551.370 223, 554.107 223 C 555.863 223, 556 222.099, 556 210.571 L 556 198.142 559.368 194.571 C 562.005 191.776, 563.509 191, 566.297 191 C 570.156 191, 572.705 192.881, 573.503 196.320 C 573.782 197.519, 574.120 203.900, 574.255 210.500 C 574.492 222.098, 574.575 222.511, 576.750 222.820 C 578.989 223.138, 579 223.071, 579 209.530 C 579 197.947, 578.706 195.343, 577.023 192.045 C 573.590 185.316, 564.487 184.195, 557.951 189.695 L 554.843 192.310 552.423 189.701 C 551.093 188.266, 548.457 186.801, 546.567 186.447 C 542.579 185.698, 536.428 187.441, 535.620 189.548 C 534.718 191.898, 533 191.211, 533 188.500 C 533 186.654, 532.469 186, 530.969 186 C 529.851 186, 528.715 186.579, 528.443 187.287 M 596.500 187.995 C 589.192 191.637, 585.927 199.360, 587.437 209.431 C 589.091 220.455, 600.754 226.018, 611.750 221.027 C 614.688 219.693, 616 218.481, 616 217.100 C 616 215.208, 615.816 215.179, 612.532 216.551 C 603.246 220.431, 592.933 216.636, 591.845 208.937 L 591.500 206.500 604.875 206.220 L 618.250 205.940 617.563 200.720 C 616.690 194.085, 614.421 190.218, 610.016 187.863 C 605.532 185.466, 601.496 185.505, 596.500 187.995 M 623.309 188.250 C 623.608 189.488, 625.051 194.325, 626.516 199 C 627.981 203.675, 630.010 210.598, 631.025 214.385 C 633.064 221.994, 633.949 223.352, 636.539 222.844 C 637.830 222.590, 639.407 218.951, 642.538 209 C 644.874 201.575, 647.171 195.586, 647.642 195.690 C 648.114 195.795, 649.027 198.045, 649.671 200.690 C 653.345 215.780, 655.701 222.511, 657.425 222.843 C 658.408 223.033, 659.602 222.798, 660.078 222.322 C 660.745 221.655, 668.836 196.489, 671.104 188.024 C 671.350 187.108, 670.664 186.419, 669.296 186.210 C 666.884 185.841, 666.497 186.818, 661.739 205.311 C 660.492 210.157, 659.028 214.050, 658.486 213.962 C 657.944 213.874, 655.852 208.018, 653.839 200.949 C 649.817 186.833, 649.470 186, 647.601 186 C 645.895 186, 644.980 188.221, 640.502 203.250 C 637.074 214.752, 635 218.923, 635 214.312 C 635 213.384, 633.313 206.638, 631.250 199.322 C 627.795 187.067, 627.314 186.020, 625.133 186.010 C 623.183 186.002, 622.862 186.396, 623.309 188.250 M 685.500 187.819 C 680.722 190.087, 678.599 192.322, 676.538 197.254 C 671.031 210.436, 681.449 224.659, 695.112 222.610 C 705.444 221.061, 710.470 214.317, 709.823 202.869 C 709.417 195.696, 707.818 192.447, 702.879 188.759 C 699.119 185.951, 690.425 185.481, 685.500 187.819 M 720.443 187.287 C 720.172 187.994, 720.074 196.207, 720.225 205.537 C 720.496 222.272, 720.530 222.504, 722.750 222.820 C 724.966 223.134, 725 222.975, 725 212.135 C 725 206.082, 725.480 199.863, 726.067 198.315 C 727.925 193.409, 730.948 191, 735.244 191 C 738.711 191, 739.104 190.753, 738.820 188.750 C 738.574 187.023, 737.741 186.427, 735.237 186.186 C 732.688 185.940, 731.304 186.542, 728.910 188.936 C 727.225 190.621, 725.656 192, 725.423 192 C 725.190 192, 725 190.650, 725 189 C 725 186.651, 724.559 186, 722.969 186 C 721.851 186, 720.715 186.579, 720.443 187.287 M 598.388 191.980 C 595.913 192.980, 592 197.669, 592 199.635 C 592 200.702, 594.294 201, 602.500 201 C 612.930 201, 613 200.984, 613 198.589 C 613 193.276, 604.592 189.473, 598.388 191.980 M 685.332 193.063 C 681.782 195.337, 680 199.394, 680 205.199 C 680 213.127, 684.955 218, 693.016 218 C 700.187 218, 704.460 214.343, 705.563 207.263 C 706.466 201.466, 705.472 198.272, 701.541 194.341 C 698.664 191.464, 697.527 191.002, 693.350 191.017 C 690.207 191.028, 687.385 191.748, 685.332 193.063 M 500.500 206.122 C 494.125 207.590, 492.080 212.080, 496 216 C 501.081 221.081, 511.420 216.583, 512.666 208.750 L 513.262 205 508.881 205.100 C 506.471 205.156, 502.700 205.615, 500.500 206.122 M 381.833 275.568 C 347.882 279.682, 315.633 293.278, 290.500 314.072 C 275.777 326.254, 269.347 333.096, 259.086 347.500 C 254.397 354.081, 244 371.338, 244 372.538 C 244 372.715, 242.693 375.704, 241.096 379.180 C 228.885 405.759, 223.375 438.540, 225.815 470.091 C 228.343 502.764, 238.235 531.588, 256.158 558.500 C 265.212 572.094, 286.030 593.356, 300 603.276 C 311.371 611.351, 331.536 621.474, 346.030 626.383 C 393.828 642.575, 447.888 637.433, 491.997 612.502 C 502.857 606.363, 520.980 592.888, 527.236 586.301 L 529.973 583.419 523.111 576.611 L 516.250 569.802 506.489 578.010 C 480.006 600.276, 451.975 611.918, 417.199 615.095 C 351.749 621.074, 288.386 584.063, 260.410 523.512 C 244.222 488.474, 241.654 440.212, 253.946 402 C 260.774 380.776, 274.323 358.834, 291 341.996 C 317.228 315.513, 347.838 300.401, 385.245 295.468 C 399.413 293.599, 407.970 293.617, 422.699 295.545 C 455.209 299.800, 480.940 311.158, 507.178 332.832 C 511.950 336.774, 516.212 340, 516.649 340 C 518.204 340, 529 328.532, 529 326.880 C 529 324.348, 513.889 311.779, 500 302.758 C 465.202 280.158, 423.377 270.535, 381.833 275.568 M 694.387 372.019 C 665.755 377.201, 644.043 398.050, 634.314 429.704 C 631.753 438.040, 631.608 439.598, 631.556 459.500 C 631.494 482.658, 632.397 488.482, 638.297 503 C 644.480 518.216, 654.913 530.800, 667.142 537.794 C 677.701 543.833, 687.027 546.193, 702.502 546.741 C 717.904 547.287, 730.046 545.499, 743.056 540.771 C 750.002 538.247, 762.978 531.381, 763.032 530.201 C 763.288 524.652, 763.187 509.967, 762.892 509.861 C 762.676 509.784, 759.640 511.569, 756.144 513.829 C 740.450 523.972, 727.440 528.159, 711 528.356 C 693.443 528.566, 682.456 524.507, 671.126 513.623 C 666.153 508.846, 663.808 505.522, 660.459 498.500 C 656.025 489.203, 653 476.701, 653 467.672 L 653 463 713.500 463 L 774 463 774 451.669 C 774 424.143, 765.299 399.546, 751.019 386.707 C 745.380 381.637, 734.916 375.910, 727 373.561 C 720.437 371.613, 701.560 370.721, 694.387 372.019 M 583.905 373.842 C 569.809 378.492, 559.421 389.552, 552.294 407.500 C 551.842 408.640, 551.382 402.079, 551.226 392.250 L 550.953 375 540.476 375 L 530 375 530 459 L 530 543 540.500 543 L 551 543 551.008 499.250 C 551.013 475.188, 551.480 451.450, 552.047 446.500 C 553.052 437.713, 555.213 427.512, 556.919 423.500 C 563.392 408.278, 568.971 400.880, 577.776 395.842 C 582.828 392.951, 584.541 392.526, 592.497 392.185 C 599.871 391.869, 602.495 392.179, 607 393.899 C 610.025 395.054, 612.837 395.999, 613.250 395.999 C 613.663 396, 614 391.264, 614 385.475 L 614 374.950 611.250 373.823 C 606.234 371.765, 590.167 371.777, 583.905 373.842 M 692 391.824 C 677.680 396.614, 667.912 405.227, 661.177 419 C 657.106 427.324, 654 437.153, 654 441.710 L 654 444 703.117 444 L 752.235 444 751.532 436.250 C 750.694 427.005, 747.223 416.018, 742.944 409.064 C 738.803 402.333, 730.759 395.446, 724 392.845 C 716.123 389.813, 699.588 389.286, 692 391.824 M 390 394.692 C 380.066 396.359, 368.821 402.183, 361.392 409.508 C 342.978 427.664, 338.585 464.955, 351.853 490.468 C 358.383 503.024, 368.763 511.605, 382.871 516.112 C 391.855 518.982, 410.887 519.203, 419 516.532 C 437.941 510.297, 449.291 499.115, 455.574 480.500 C 460.119 467.037, 460.055 442.781, 455.439 429.172 C 449.559 411.836, 437.033 400.105, 419.540 395.552 C 413.968 394.101, 396.543 393.594, 390 394.692" stroke="none" fill="#ffffff" fill-rule="evenodd"/><path d="M 749.405 184.500 C 749.406 193.300, 749.559 196.766, 749.745 192.203 C 749.930 187.639, 749.929 180.439, 749.742 176.203 C 749.555 171.966, 749.404 175.700, 749.405 184.500 M 255 175 L 245.500 175.617 254.691 175.809 C 259.957 175.918, 264.146 175.573, 264.500 175 C 264.840 174.450, 264.979 174.086, 264.809 174.191 C 264.639 174.297, 260.225 174.661, 255 175 M 443.250 175.735 C 445.863 175.941, 450.137 175.941, 452.750 175.735 C 455.363 175.529, 453.225 175.360, 448 175.360 C 442.775 175.360, 440.637 175.529, 443.250 175.735 M 528.443 187.287 C 528.172 187.994, 528.075 196.207, 528.228 205.537 L 528.506 222.500 529.003 204.249 C 529.276 194.211, 529.373 185.998, 529.219 185.999 C 529.064 185.999, 528.715 186.579, 528.443 187.287 M 356.310 196.500 C 356.315 199.800, 356.502 201.029, 356.725 199.232 C 356.947 197.435, 356.943 194.735, 356.715 193.232 C 356.486 191.729, 356.304 193.200, 356.310 196.500 M 440.728 195.722 C 442.503 195.943, 445.653 195.946, 447.728 195.730 C 449.802 195.513, 448.350 195.333, 444.500 195.328 C 440.650 195.324, 438.952 195.501, 440.728 195.722 M 249.280 198.736 C 251.909 198.943, 255.959 198.940, 258.280 198.731 C 260.601 198.521, 258.450 198.352, 253.500 198.355 C 248.550 198.358, 246.651 198.530, 249.280 198.736 M 517.385 210 C 517.385 216.875, 517.545 219.688, 517.740 216.250 C 517.936 212.813, 517.936 207.188, 517.740 203.750 C 517.545 200.313, 517.385 203.125, 517.385 210 M 551.382 209.500 C 551.384 216.100, 551.546 218.670, 551.741 215.211 C 551.937 211.752, 551.936 206.352, 551.738 203.211 C 551.540 200.070, 551.380 202.900, 551.382 209.500 M 613 199.833 C 613 200.637, 609.653 201.066, 602.250 201.211 L 591.500 201.422 601.913 201.748 C 611.541 202.049, 615.563 201.230, 613.683 199.350 C 613.308 198.974, 613 199.192, 613 199.833 M 720.355 208.500 C 720.352 213.450, 720.521 215.601, 720.731 213.280 C 720.940 210.959, 720.943 206.909, 720.736 204.280 C 720.530 201.651, 720.358 203.550, 720.355 208.500 M 748.990 215.205 C 748.720 219.442, 748.860 222.548, 749.299 222.106 C 749.739 221.663, 749.959 218.196, 749.789 214.401 L 749.480 207.500 748.990 215.205 M 612.993 384.296 L 613.487 394.500 613.783 385.090 C 613.946 379.914, 613.724 375.322, 613.290 374.885 C 612.855 374.449, 612.722 378.683, 612.993 384.296 M 550.160 400.191 C 550.072 404.971, 550.337 409.092, 550.750 409.348 C 551.163 409.605, 551.375 407.044, 551.222 403.657 C 550.723 392.629, 550.323 391.325, 550.160 400.191 M 390 394.692 C 380.066 396.359, 368.821 402.183, 361.392 409.508 C 342.978 427.664, 338.585 464.955, 351.853 490.468 C 358.383 503.024, 368.763 511.605, 382.871 516.112 C 391.855 518.982, 410.887 519.203, 419 516.532 C 437.941 510.297, 449.291 499.115, 455.574 480.500 C 460.119 467.037, 460.055 442.781, 455.439 429.172 C 449.559 411.836, 437.033 400.105, 419.540 395.552 C 413.968 394.101, 396.543 393.594, 390 394.692 M 550.310 533.500 C 550.315 536.800, 550.502 538.029, 550.725 536.232 C 550.947 534.435, 550.943 531.735, 550.715 530.232 C 550.486 528.729, 550.304 530.200, 550.310 533.500 M 397.250 635.739 C 400.413 635.937, 405.587 635.937, 408.750 635.739 C 411.913 635.541, 409.325 635.378, 403 635.378 C 396.675 635.378, 394.087 635.541, 397.250 635.739" stroke="none" fill="#41ccf5" fill-rule="evenodd"/><path d="M 745.234 195.250 C 745.463 218.687, 745.710 222.500, 747 222.500 C 748.189 222.500, 748.560 220.788, 748.790 214.250 C 748.950 209.713, 749.503 206, 750.020 206 C 750.536 206, 752.881 208.103, 755.229 210.673 C 765.650 222.075, 769.064 224.603, 771.181 222.485 C 771.464 222.202, 767.939 218.180, 763.348 213.547 C 758.757 208.915, 755 204.522, 755 203.787 C 755 203.052, 758.375 199.097, 762.500 195 C 766.625 190.903, 770 187.201, 770 186.775 C 770 186.349, 769.141 186, 768.091 186 C 766.443 186, 759.722 192.210, 753.209 199.750 C 749.375 204.189, 749 202.876, 749 185 C 749 168.621, 748.926 168, 746.984 168 C 745.005 168, 744.973 168.506, 745.234 195.250 M 240.233 196.719 L 240.500 222.500 253 222.500 C 264.833 222.500, 265.500 222.393, 265.500 220.500 C 265.500 218.641, 264.739 218.480, 254.714 218.216 L 243.928 217.932 244.214 208.216 L 244.500 198.500 253.750 198.212 C 262.177 197.951, 263 197.750, 263 195.962 C 263 194.150, 262.273 194, 253.500 194 L 244 194 244 185.019 C 244 174.584, 243.289 175.168, 256.500 174.752 C 262.833 174.552, 264.500 174.187, 264.500 173 C 264.500 171.763, 262.345 171.451, 252.233 171.219 L 239.966 170.938 240.233 196.719 M 340.152 171.885 C 338.179 173.135, 339.177 176.451, 341.633 176.803 C 344.140 177.162, 345.561 174.381, 343.895 172.373 C 342.577 170.785, 342.005 170.710, 340.152 171.885 M 433.629 171.792 C 433.339 172.261, 433.191 183.863, 433.301 197.573 C 433.494 221.767, 433.559 222.500, 435.500 222.500 C 437.365 222.500, 437.519 221.739, 437.783 211.250 L 438.066 200 446.974 200 C 455.771 200, 458.443 199.043, 456.123 196.723 C 455.455 196.055, 451.795 195.716, 446.851 195.862 C 442.358 195.995, 438.416 195.677, 438.091 195.155 C 437.766 194.633, 437.725 189.997, 438 184.853 L 438.500 175.500 448.316 175.213 C 456.958 174.960, 458.093 174.721, 457.804 173.213 C 457.520 171.732, 455.896 171.462, 445.816 171.219 C 439.403 171.064, 433.919 171.322, 433.629 171.792 M 318.200 177.200 C 317.540 177.860, 317 180.110, 317 182.200 C 317 185.534, 316.709 186, 314.622 186 C 311.542 186, 309.593 188.193, 311.224 189.824 C 311.871 190.471, 313.435 191, 314.700 191 C 316.980 191, 317 191.111, 317 203.777 C 317 217.886, 317.622 219.772, 323.005 222.002 C 326.566 223.477, 331 222.101, 331 219.521 C 331 218.415, 329.918 218, 327.035 218 C 321.622 218, 321 216.415, 321 202.621 L 321 191.110 325.750 190.805 C 329.732 190.549, 330.500 190.177, 330.500 188.500 C 330.500 186.823, 329.732 186.451, 325.750 186.195 L 321 185.890 321 180.945 C 321 175.918, 320.351 175.049, 318.200 177.200 M 357.667 176.667 C 357.300 177.033, 357 179.255, 357 181.603 C 357 185.690, 356.860 185.887, 353.750 186.187 C 351.271 186.426, 350.500 186.975, 350.500 188.500 C 350.500 190.025, 351.271 190.574, 353.750 190.813 L 357 191.127 357 203.516 C 357 210.467, 357.487 216.976, 358.110 218.343 C 360.062 222.626, 366.486 224.371, 369.438 221.419 C 371.595 219.262, 370.534 218, 366.563 218 C 361.384 218, 360.904 216.643, 361.218 202.878 L 361.500 190.536 365.830 190.850 C 369.866 191.143, 370.138 191.006, 369.830 188.832 C 369.552 186.867, 368.831 186.452, 365.250 186.193 L 361 185.885 361 180.943 C 361 177.490, 360.598 176, 359.667 176 C 358.933 176, 358.033 176.300, 357.667 176.667 M 276.688 186.646 C 276.309 187.024, 276 195.358, 276 205.167 C 276 222.333, 276.075 223, 278 223 C 279.894 223, 280 222.333, 280 210.400 L 280 197.800 283.400 194.400 C 286.266 191.534, 287.512 191, 291.329 191 C 296.176 191, 298.640 192.604, 299.503 196.320 C 299.782 197.519, 300.120 203.900, 300.255 210.500 C 300.485 221.752, 300.625 222.500, 302.500 222.500 C 304.397 222.500, 304.500 221.833, 304.500 209.500 C 304.500 193.975, 303.510 190.811, 297.726 187.860 C 292.898 185.397, 288.397 185.954, 284.135 189.540 C 280.474 192.620, 280.205 192.607, 279.816 189.327 C 279.500 186.653, 277.981 185.352, 276.688 186.646 M 340 204.427 C 340 222.402, 340.065 223, 342.023 223 C 343.989 223, 344.038 222.491, 343.773 204.763 C 343.527 188.315, 343.328 186.493, 341.750 186.190 C 340.134 185.879, 340 187.276, 340 204.427 M 373.642 186.771 C 373.380 187.194, 375.302 192.956, 377.912 199.575 C 386.618 221.647, 386.537 221.343, 384.970 226.092 C 383.075 231.833, 381.071 234.034, 376.976 234.871 C 372.995 235.685, 372.242 238.322, 375.845 238.832 C 381.633 239.651, 385.345 235.837, 389.793 224.500 C 390.872 221.750, 394.688 212.185, 398.273 203.244 C 401.858 194.304, 404.429 186.765, 403.986 186.491 C 402.119 185.338, 400.239 187.424, 398.314 192.787 C 392.060 210.205, 389.597 216.032, 388.625 215.708 C 388.030 215.510, 385.467 209.439, 382.931 202.218 C 380.394 194.997, 377.742 188.394, 377.037 187.544 C 375.636 185.856, 374.383 185.571, 373.642 186.771 M 468 204.427 C 468 222.333, 468.072 223, 470 223 C 471.871 223, 472 222.333, 472 212.625 C 472 206.919, 472.280 200.850, 472.622 199.139 C 473.567 194.414, 477.247 191, 481.393 191 C 485.492 191, 486.436 189.978, 484.624 187.500 C 482.818 185.030, 478.619 186.199, 474.978 190.185 L 472.148 193.284 471.824 189.900 C 471.607 187.635, 470.922 186.407, 469.750 186.185 C 468.134 185.879, 468 187.278, 468 204.427 M 498.504 187.794 C 495.209 188.919, 493.387 190.145, 493.153 191.393 C 492.858 192.965, 493.197 193.163, 495.149 192.560 C 499.703 191.153, 507.720 190.780, 509.775 191.880 C 512.368 193.268, 513.789 198.885, 511.857 200.110 C 511.111 200.582, 509.510 200.976, 508.299 200.985 C 503.319 201.019, 495.755 203.335, 492.971 205.678 C 488.824 209.168, 488.781 214.935, 492.872 219.026 C 497.819 223.973, 502.570 224.139, 509.263 219.596 L 512.881 217.141 513.190 219.812 C 513.375 221.401, 514.209 222.617, 515.250 222.815 C 516.851 223.118, 517 221.925, 516.996 208.823 C 516.992 191.996, 515.998 189.215, 509.270 187.199 C 504.352 185.725, 504.601 185.712, 498.504 187.794 M 529.688 186.646 C 529.309 187.024, 529 195.391, 529 205.240 C 529 221.755, 529.136 223.121, 530.750 222.811 C 532.289 222.516, 532.534 220.947, 532.779 209.812 C 533.053 197.418, 533.120 197.083, 535.931 194.074 C 538.217 191.626, 539.623 191, 542.830 191 C 550.342 191, 552 194.642, 552 211.138 C 552 222.035, 552.162 223.116, 553.750 222.813 C 555.273 222.522, 555.565 220.855, 556 209.989 C 556.643 193.916, 558.246 191, 566.434 191 C 572.761 191, 573.976 193.319, 574.157 205.750 C 574.410 223.183, 574.527 223.779, 577.457 222.655 C 578.731 222.166, 579 219.932, 579 209.815 C 579 193.858, 577.614 189.782, 571.378 187.400 C 567.263 185.829, 566.725 185.833, 562.426 187.475 C 559.910 188.436, 557.612 189.847, 557.319 190.611 C 556.600 192.485, 553.359 192.377, 552.621 190.455 C 552.295 189.605, 550.356 188.211, 548.312 187.357 C 543.903 185.515, 538.519 186.660, 535.413 190.102 L 533.500 192.221 533 189.443 C 532.498 186.654, 530.970 185.363, 529.688 186.646 M 596.840 187.968 C 589.090 192.177, 585.984 199.437, 587.788 209.133 C 589.017 215.742, 591.703 219.142, 597.662 221.632 C 602.304 223.572, 606.260 223.333, 611.473 220.801 C 616.199 218.505, 617.981 215.131, 613.750 216.489 C 612.513 216.886, 608.523 217.436, 604.884 217.711 C 598.657 218.181, 598.089 218.043, 595.234 215.355 C 593.565 213.785, 591.944 211.050, 591.631 209.279 L 591.062 206.058 604.281 205.779 L 617.500 205.500 617.304 201.185 C 616.794 189.931, 606.029 182.978, 596.840 187.968 M 623.607 186.827 C 623.288 187.343, 623.945 190.406, 625.067 193.633 C 626.188 196.860, 628.439 204.216, 630.069 209.980 C 633.211 221.095, 635.086 224.314, 637.192 222.208 C 637.856 221.544, 640.226 215.299, 642.460 208.330 C 644.694 201.361, 647.079 195.474, 647.761 195.246 C 648.442 195.019, 649 195.510, 649 196.337 C 649 197.966, 655.820 222.153, 656.460 222.793 C 656.674 223.007, 657.700 222.913, 658.740 222.583 C 660.200 222.119, 661.794 218.058, 665.743 204.741 C 668.903 194.085, 670.501 187.137, 669.928 186.550 C 668.238 184.820, 667.055 187.381, 663.063 201.404 C 659.367 214.388, 658.431 216.917, 657.693 215.917 C 657.524 215.688, 655.896 209.875, 654.075 203 C 652.254 196.125, 650.081 189.409, 649.246 188.077 C 647.840 185.834, 647.632 185.782, 646.464 187.380 C 645.769 188.330, 643.992 193.021, 642.515 197.804 C 637.345 214.538, 636.834 216, 636.158 216 C 635.783 216, 634.215 211.387, 632.672 205.750 C 631.130 200.113, 629.306 193.476, 628.619 191.001 C 627.436 186.742, 624.943 184.666, 623.607 186.827 M 688.120 187.153 C 683.056 188.609, 680.093 190.898, 678.026 194.949 C 675.039 200.805, 674.602 205.286, 676.470 210.911 C 678.461 216.904, 682.036 220.190, 688.548 222.014 C 692.780 223.198, 693.906 223.148, 698.339 221.573 C 701.095 220.594, 703.893 219.249, 704.559 218.584 C 707.463 215.680, 710 208.876, 710 203.990 C 710 195.499, 705.861 189.665, 698.201 187.360 C 693.087 185.821, 692.772 185.815, 688.120 187.153 M 720.713 187.304 C 720.053 189.027, 720.697 222.030, 721.405 222.739 C 721.685 223.018, 722.571 222.995, 723.374 222.687 C 724.519 222.248, 724.906 219.465, 725.167 209.813 C 725.464 198.840, 725.752 197.146, 727.818 194.250 C 729.760 191.527, 730.774 191, 734.068 191 C 737.354 191, 738 190.666, 738 188.969 C 738 187.851, 737.378 186.698, 736.617 186.406 C 734.707 185.674, 728.103 188.568, 727.379 190.455 C 726.451 192.872, 725.164 192.271, 724.816 189.259 C 724.477 186.314, 721.616 184.952, 720.713 187.304 M 598.514 191.735 C 595.752 192.434, 592.003 197.048, 592.001 199.750 C 592 201.940, 592.280 202, 602.441 202 C 608.184 202, 613.148 201.570, 613.473 201.044 C 614.403 199.539, 611.382 193.275, 609.150 192.080 C 607.100 190.983, 602.122 190.821, 598.514 191.735 M 686.388 191.980 C 682.089 193.717, 680 197.811, 680 204.500 C 680 214.423, 684.952 218.740, 695.203 217.755 C 699.176 217.373, 700.905 216.649, 702.627 214.647 C 707.336 209.173, 706.623 197.209, 701.341 193.054 C 698.564 190.869, 690.560 190.294, 686.388 191.980 M 505.547 205.257 C 497.121 206.200, 494 207.987, 494 211.868 C 494 215.821, 496.816 218, 501.924 218 C 507.488 218, 511.714 215.042, 512.555 210.559 C 513.660 204.669, 513.292 204.390, 505.547 205.257 M 390 275.056 C 379.544 275.819, 366.016 278.012, 356.500 280.486 C 342.070 284.237, 320.354 293.720, 309.200 301.140 C 306.835 302.713, 304.673 304, 304.397 304 C 303.182 304, 288.849 315.304, 282.084 321.597 C 263.036 339.314, 248.137 361.533, 238.226 387 C 228.331 412.427, 224.156 438.028, 225.505 465 C 227.104 496.959, 236.172 525.964, 253.095 553.250 C 260.079 564.511, 265.902 571.794, 276.343 582.330 C 296.866 603.039, 318.773 616.836, 345.500 625.885 C 367.742 633.416, 374.098 634.361, 403 634.435 C 425.973 634.494, 429.493 634.277, 438.517 632.246 C 464.244 626.457, 484.995 617.514, 506.500 602.948 C 513.895 597.939, 528.309 585.402, 528.776 583.574 C 528.928 582.980, 526.140 579.608, 522.581 576.080 L 516.111 569.667 509.705 575.659 C 483.258 600.399, 442.861 616, 405.244 616 C 395.099 616, 376.029 613.876, 368.657 611.924 C 351.602 607.410, 350.594 607.074, 339.500 602.205 C 313.785 590.921, 288.182 569.280, 272.093 545.230 C 261.419 529.275, 252.786 507.912, 248.896 487.828 C 245.674 471.191, 245.624 438.674, 248.795 421.271 C 250.021 414.546, 251.441 408.021, 251.951 406.771 C 252.462 405.522, 254.514 400.015, 256.512 394.533 C 260.797 382.778, 265.017 374.858, 273.704 362.267 C 283.960 347.402, 301.287 330.264, 315 321.421 C 317.475 319.825, 319.727 318.217, 320.004 317.848 C 321.017 316.501, 344.673 305.153, 350.687 303.129 C 375.085 294.917, 399.836 292.313, 423.639 295.452 C 456.665 299.808, 483.466 312.030, 509.654 334.678 C 513.038 337.605, 516.009 340, 516.255 340 C 516.984 340, 529.001 327.877, 528.985 327.158 C 528.928 324.707, 513.667 312.013, 500.621 303.566 C 474.203 286.459, 447.246 277.365, 416 275.019 C 408.575 274.461, 402.050 274.069, 401.500 274.147 C 400.950 274.225, 395.775 274.634, 390 275.056 M 699 371.571 C 680.507 374.760, 668.392 380.490, 657.183 391.349 C 646.400 401.796, 639.588 413.525, 634.319 430.716 C 631.775 439.014, 631.625 440.633, 631.594 460 C 631.568 476.437, 631.914 481.887, 633.340 487.500 C 637.869 505.325, 646.331 520.678, 656.741 529.957 C 662.906 535.451, 675.498 542.160, 684.043 544.501 C 687.044 545.323, 694.900 546.276, 701.500 546.617 C 719.744 547.560, 736.759 544.145, 752.147 536.453 C 763.248 530.905, 763 531.283, 763 519.845 C 763 514.430, 762.788 510, 762.530 510 C 762.271 510, 758.784 512.176, 754.780 514.836 C 750.776 517.496, 744.733 520.876, 741.351 522.347 C 733.578 525.728, 718.395 528.964, 710.208 528.984 C 701.181 529.007, 689.446 526.331, 682.500 522.666 C 674.862 518.635, 665.391 509.088, 661.162 501.153 C 657.097 493.526, 653.028 477.596, 653.012 469.250 L 653 463 713.500 463 L 774 463 773.996 452.750 C 773.994 447.113, 773.308 438.225, 772.472 433 C 767.214 400.136, 751.484 380.363, 725.175 373.545 C 719.064 371.962, 703.529 370.790, 699 371.571 M 584.798 373.931 C 577.689 376.204, 570.996 380.079, 566.927 384.278 C 562.555 388.789, 555.634 399.606, 553.521 405.230 C 552.543 407.831, 551.338 409.709, 550.841 409.402 C 550.344 409.095, 550.065 401.350, 550.219 392.172 L 550.500 375.500 540.500 375.500 L 530.500 375.500 530.244 459.285 L 529.989 543.070 540.230 542.785 L 550.471 542.500 550.719 507 C 551.173 442.265, 551.691 436.198, 558.146 420.060 C 564.541 404.070, 575.747 393.694, 588.500 391.957 C 594.770 391.102, 604.876 392.293, 609.058 394.379 C 610.810 395.253, 612.526 395.794, 612.871 395.582 C 613.217 395.370, 613.275 390.540, 613 384.849 L 612.500 374.500 608 373.330 C 601.336 371.599, 591.278 371.859, 584.798 373.931 M 690.776 391.981 C 679.814 395.425, 671.194 402.203, 664.332 412.773 C 659.901 419.599, 657.466 425.365, 655.079 434.681 C 653.064 442.548, 653.253 445.501, 655.711 444.557 C 656.510 444.251, 678.566 444, 704.725 444 L 752.287 444 751.617 436.793 C 749.390 412.826, 739.213 397.761, 721.248 391.834 C 713.870 389.400, 698.759 389.473, 690.776 391.981" stroke="none" fill="#69207a" fill-rule="evenodd"/></svg>