<svg xmlns="http://www.w3.org/2000/svg" width="400" height="400" viewBox="0 0 400 400" version="1.1"><path d="M 327 284.890 C 315.858 287.924, 309.149 291.860, 300.392 300.500 C 291.600 309.175, 287.258 316.671, 284.969 327.124 L 283.738 332.747 277.152 333.276 C 271.622 333.720, 270.199 334.230, 268.282 336.458 C 265.162 340.085, 265.351 344.004, 268.805 347.313 C 271.207 349.615, 272.464 350, 277.568 350 L 283.527 350 284.751 355.250 C 285.424 358.137, 287.771 364.149, 289.966 368.608 C 296.695 382.280, 310.709 393.570, 326.933 398.388 C 333.533 400.347, 351.969 400.631, 353.800 398.800 C 354.460 398.140, 355 397.891, 355 398.246 C 355 399.277, 365.922 395.236, 370.693 392.440 C 377.404 388.507, 387.718 378.318, 391.472 371.913 C 397.679 361.322, 400 353.144, 400 341.867 C 400 325.193, 394.722 312.641, 382.560 300.388 C 367.854 285.573, 346.435 279.598, 327 284.890 M 331 301.603 C 319.926 304.566, 309.635 312.903, 304.449 323.111 C 302.154 327.631, 299.262 340.037, 299.813 343 C 299.967 343.825, 300.290 345.850, 300.532 347.500 C 301.794 356.107, 308.516 367.830, 315.442 373.506 C 336.639 390.875, 367.892 383.051, 379.682 357.423 C 382.057 352.260, 382.413 350.215, 382.453 341.479 C 382.497 332.185, 382.269 330.988, 379.310 324.979 C 375.329 316.892, 370.468 311.150, 364.194 307.125 C 353.678 300.377, 342.521 298.521, 331 301.603 M 171.357 333.992 C 168.552 335.124, 166 338.843, 166 341.799 C 166 343.094, 167.371 345.525, 169.046 347.200 C 171.651 349.805, 172.612 350.162, 175.670 349.666 C 182.286 348.593, 185.313 343.439, 182.511 338.021 C 180.112 333.383, 176.288 332.001, 171.357 333.992 M 204.315 334.007 C 201.588 335.106, 200 337.982, 200 341.823 C 200 345.989, 202.853 349.065, 207.269 349.660 C 210.428 350.086, 211.447 349.707, 213.996 347.158 C 217.872 343.282, 217.898 339.744, 214.077 335.923 C 211.108 332.954, 208.298 332.402, 204.315 334.007" stroke="none" fill="#77b5fb" fill-rule="evenodd"/><path d="M 62.500 1.895 C 36.610 9.455, 16.476 26.477, 7.044 48.779 C 1.300 62.360, -0 68.653, 0 82.876 C 0 97.460, 1.714 106.003, 6.965 117.584 C 17.241 140.246, 38.319 158.296, 61.209 164.036 L 65.919 165.217 66.209 230.358 L 66.500 295.500 69.324 303.500 C 73.511 315.364, 77.455 321.601, 86.429 330.547 C 98.107 342.190, 110.719 348.231, 126.699 349.838 L 133.277 350.500 134.655 356 C 138.052 369.554, 146.835 382.069, 158.358 389.776 C 171.198 398.364, 175.127 399.500, 192 399.500 L 206.500 399.500 216.226 394.739 C 237.652 384.252, 249.957 364.901, 249.988 341.644 C 250.022 316.357, 235.694 295.760, 211.500 286.319 C 205.238 283.875, 203.182 283.582, 192 283.543 C 181.460 283.507, 178.451 283.863, 172.810 285.812 C 154.962 291.978, 141.055 306.409, 135.362 324.669 L 132.785 332.932 128.143 332.376 C 121.508 331.581, 114.298 329.208, 108.335 325.854 C 102.060 322.326, 92.841 312.592, 89.465 305.931 C 84.229 295.598, 84 293.055, 84 245.223 L 84 200.866 88.293 204.384 C 93.862 208.948, 106.050 214.696, 112.886 215.985 C 115.849 216.543, 121.527 217, 125.504 217 L 132.735 217 135.353 224.922 C 139.048 236.102, 143.891 243.790, 151.868 251.142 C 159.928 258.571, 169.101 263.491, 178.672 265.519 C 209.127 271.971, 238.426 254.879, 247.656 225.273 L 250.250 216.953 266.762 217.226 L 283.274 217.500 284.628 222.794 C 290.106 244.218, 308.968 261.972, 330.434 265.911 C 351.888 269.848, 373.676 261.909, 387.049 245.280 C 391.676 239.527, 394.323 234.620, 397.397 226.097 C 400.808 216.641, 401.111 200.542, 398.045 191.631 C 392.744 176.223, 382.309 163.503, 369.500 156.836 C 359.180 151.464, 353.165 150, 341.424 150 C 324.157 150, 311.906 155.026, 299.892 167.040 C 292.648 174.283, 286.625 184.945, 284.541 194.217 L 283.353 199.500 272.926 199.814 C 267.192 199.986, 259.717 199.841, 256.316 199.491 L 250.132 198.855 247.442 190.408 C 242.768 175.728, 232.729 163.795, 219 156.600 C 209.125 151.424, 203.080 149.998, 191.068 150.013 C 182.093 150.025, 179.286 150.449, 172.444 152.831 C 154.001 159.252, 142.305 171.267, 135.784 190.493 L 133.068 198.500 123.129 198.448 C 113.886 198.399, 112.727 198.161, 106.589 195.045 C 98.517 190.948, 91.911 184.105, 87.956 175.745 C 86.331 172.310, 85.001 168.990, 85.001 168.366 C 85 167.702, 87.791 166.948, 91.750 166.544 C 110.611 164.618, 127.572 156.658, 141.305 143.288 C 156.671 128.330, 165.378 109.354, 166.675 88 C 169.086 48.301, 143.226 12.829, 104.020 2.055 C 94.084 -0.675, 71.597 -0.762, 62.500 1.895 M 72.075 18.019 C 45.809 23.579, 27.018 40.529, 19.436 65.500 C 16.914 73.808, 16.883 92.204, 19.377 100.500 C 28.144 129.651, 53.753 149.268, 83 149.235 C 87.675 149.230, 93.750 148.714, 96.500 148.088 C 120.022 142.737, 138.557 125.696, 146.627 102 C 149.303 94.143, 149.303 71.857, 146.627 64 C 137.202 36.327, 114.208 18.679, 86.022 17.485 C 80.785 17.263, 74.509 17.504, 72.075 18.019 M 57.859 42.158 C 55.856 43.319, 53.156 46.121, 51.859 48.385 C 49.587 52.347, 49.487 53.408, 49.156 77 C 48.741 106.554, 49.360 114.767, 52.333 119.133 C 56.161 124.755, 59.403 126.461, 66.301 126.482 L 72.504 126.500 95.002 112.607 C 107.376 104.965, 118.793 97.540, 120.373 96.107 C 127.736 89.427, 127.956 77.874, 120.845 71.348 C 118.398 69.102, 79.877 44.524, 74.300 41.649 C 69.813 39.337, 62.323 39.569, 57.859 42.158 M 67 83.524 C 67 103.744, 67.262 108.956, 68.250 108.346 C 94.143 92.354, 107.413 83.761, 107.077 83.203 C 106.671 82.527, 73.178 61.236, 69.026 59.014 C 67.016 57.938, 67 58.128, 67 83.524 M 181 168.603 C 161.082 173.932, 147.565 194.194, 150.952 213.645 C 154.195 232.267, 167.827 246.167, 185.500 248.873 C 212.113 252.948, 236.235 228.776, 232.095 202.182 C 228.304 177.833, 204.637 162.279, 181 168.603 M 331 168.539 C 319.357 171.790, 308.991 180.437, 304.377 190.746 C 291.078 220.460, 315.778 253.751, 347.500 248.868 C 369.487 245.484, 385.730 223.692, 382.190 202.329 C 378.951 182.783, 363.390 168.412, 344.385 167.416 C 339.173 167.143, 334.636 167.523, 331 168.539 M 193.908 198.636 L 183.115 209.271 178.308 205.038 C 173.956 201.206, 173.122 200.856, 169.510 201.340 C 164.574 202.001, 162 204.945, 162 209.930 C 162 213.276, 162.865 214.485, 170.871 222.319 C 177.894 229.191, 180.342 230.997, 182.621 230.985 C 186.383 230.965, 186.239 231.072, 198.205 219.368 C 215.144 202.799, 217 200.539, 217 196.477 C 217 191.576, 213.370 188, 208.396 188 C 205.044 188, 203.699 188.988, 193.908 198.636 M 344.046 198.500 C 338.185 204.275, 332.868 209, 332.230 209 C 331.592 209, 330.576 208.076, 329.971 206.946 C 328.492 204.183, 323.105 201.008, 319.886 201.004 C 316.021 200.998, 312 205.471, 312 209.775 C 312 212.818, 313.083 214.380, 320.250 221.667 C 326.910 228.439, 329.227 230.173, 332.272 230.662 C 336.032 231.267, 336.091 231.222, 351.522 215.874 C 366.055 201.419, 367 200.248, 367 196.694 C 367 191.565, 363.471 188, 358.396 188 C 355.047 188, 353.703 188.984, 344.046 198.500 M 299.437 300.250 L 296.500 303.500 299.750 300.563 C 302.779 297.825, 303.460 297, 302.687 297 C 302.515 297, 301.052 298.462, 299.437 300.250 M 185.293 300.982 C 163.708 304.254, 147.925 325.291, 150.963 346.742 C 154.220 369.741, 175.924 386.003, 198.016 381.997 C 218.595 378.265, 232.456 361.657, 232.382 340.818 C 232.294 316.005, 210.093 297.223, 185.293 300.982 M 299 382.500 C 300.292 383.875, 301.574 385, 301.849 385 C 302.124 385, 301.292 383.875, 300 382.500 C 298.708 381.125, 297.426 380, 297.151 380 C 296.876 380, 297.708 381.125, 299 382.500 M 382.437 383.250 L 379.500 386.500 382.750 383.563 C 384.538 381.948, 386 380.485, 386 380.313 C 386 379.540, 385.175 380.221, 382.437 383.250" stroke="none" fill="#1c85fa" fill-rule="evenodd"/></svg>