<svg xmlns="http://www.w3.org/2000/svg" version="1.1" viewBox="290 12.42 699.98 699.55"><path d="M 621 46.114 C 579.367 70.140, 555.491 83.923, 541 92.294 C 507.474 111.661, 484.562 124.885, 463.500 137.023 C 451.400 143.997, 428.450 157.253, 412.500 166.482 C 396.550 175.711, 378.325 186.193, 372 189.776 C 365.675 193.359, 359.711 196.971, 358.747 197.803 C 357.088 199.234, 357.008 208.028, 357.247 362.218 L 357.500 525.121 371.500 533.165 C 393.857 546.010, 416.824 559.265, 469.500 589.725 C 503.820 609.571, 578.520 652.641, 584 655.742 C 585.925 656.832, 599.316 664.577, 613.757 672.954 L 640.013 688.184 668.257 671.894 C 683.791 662.935, 700.325 653.384, 705 650.670 C 709.675 647.956, 722.275 640.673, 733 634.485 C 758.904 619.541, 780.602 607.013, 800.855 595.308 C 810.010 590.017, 818.850 584.925, 820.500 583.992 C 823.208 582.462, 834.963 575.678, 885.525 546.469 C 894.338 541.377, 906.263 534.496, 912.025 531.177 L 922.500 525.142 922.753 362.229 C 922.992 208.023, 922.912 199.235, 921.253 197.820 C 919.675 196.474, 899.822 184.914, 839.500 150.219 C 813.255 135.124, 688.991 63.396, 668.500 51.514 C 645.288 38.055, 641.500 35.999, 639.919 36.007 C 639.139 36.011, 630.625 40.559, 621 46.114 M 507.484 167.806 C 494.293 175.399, 472.700 187.858, 459.500 195.491 C 446.300 203.125, 433.475 210.479, 431 211.834 C 428.525 213.189, 425.941 214.986, 425.258 215.828 C 424.299 217.011, 424.022 231.254, 424.040 278.430 L 424.064 339.500 413.134 340.648 C 407.123 341.279, 400.696 342.107, 398.852 342.488 C 384.827 345.381, 382 346.248, 382 347.655 C 382 349.170, 389.646 362.663, 390.968 363.480 C 391.363 363.724, 396.144 362.975, 401.593 361.814 C 416.219 358.699, 446.032 358.707, 461.423 361.831 C 488.891 367.405, 510.155 377.887, 524.930 393.138 C 529.547 397.904, 532.070 399.873, 532.353 398.929 C 532.588 398.143, 533.310 394.350, 533.957 390.500 C 536.780 373.718, 549.946 355.539, 568.290 343.098 C 573.540 339.537, 592.752 330.037, 594.750 330.014 C 596.976 329.989, 596.103 327.479, 590.363 317.399 C 582.139 302.956, 583.809 304, 568.917 304 L 556.145 304 552.507 298.011 C 550.506 294.717, 549.150 291.567, 549.493 291.011 C 550.217 289.840, 588.843 289.609, 590.646 290.765 C 591.277 291.169, 596.086 298.925, 601.335 308 C 610.177 323.288, 611.084 324.494, 613.689 324.419 C 615.235 324.375, 622.854 323.758, 630.620 323.049 C 641.770 322.030, 646.891 322.009, 654.966 322.947 C 660.590 323.601, 665.773 324.359, 666.483 324.632 C 668.099 325.252, 669.601 323.048, 680.029 304.750 L 688.435 290 709.658 290 C 721.331 290, 731.109 290.368, 731.387 290.818 C 731.665 291.268, 730.092 294.643, 727.891 298.318 L 723.889 305 710.544 305 L 697.199 305 690.477 316.577 C 686.779 322.944, 684.147 328.499, 684.627 328.921 C 685.107 329.343, 688.200 330.744, 691.500 332.034 C 713.440 340.613, 732.744 357.480, 741.050 375.328 C 744.354 382.427, 747 391.935, 747 396.710 C 747 398.520, 747.263 400, 747.584 400 C 747.906 400, 751.401 396.738, 755.351 392.750 C 767.156 380.833, 781.228 372.655, 800.334 366.608 C 818.716 360.790, 826.953 359.614, 849 359.662 C 864.965 359.696, 870.308 360.089, 878.474 361.828 C 884.495 363.110, 888.811 363.589, 889.362 363.038 C 891.559 360.841, 898.862 347.462, 898.215 346.820 C 896.961 345.576, 878.864 342.036, 866.983 340.712 L 855.500 339.432 855 277.490 L 854.500 215.548 843.500 209.187 C 837.450 205.688, 830.700 201.806, 828.500 200.561 C 826.300 199.316, 807.262 188.330, 786.192 176.148 C 765.123 163.967, 747.749 154, 747.583 154 C 747.282 154, 709.401 175.743, 684 190.497 C 653.027 208.486, 641.437 214.992, 640.357 214.996 C 639.307 215, 633.979 212.017, 605.500 195.484 C 592.293 187.816, 560.538 169.532, 545.435 160.897 C 538.799 157.104, 532.942 154, 532.419 154 C 531.896 154, 520.676 160.213, 507.484 167.806 M 606.111 362.560 C 598.464 368.994, 603.160 381, 613.323 381 C 618.896 381, 624 375.841, 624 370.206 C 624 361.124, 613.269 356.537, 606.111 362.560 M 658.901 363.106 C 652.297 370.175, 657.360 381, 667.269 381 C 674.174 381, 679.557 373.173, 676.962 366.907 C 675.079 362.363, 671.420 360, 666.266 360 C 662.562 360, 661.309 360.529, 658.901 363.106 M 532.667 402.667 C 532.300 403.033, 532 422.274, 532 445.423 L 532 487.513 526.203 493.061 C 515.462 503.341, 500.810 512.358, 485.596 518.050 C 482.518 519.202, 480 520.635, 480 521.237 C 480 522.738, 488.043 537.340, 489.329 538.172 C 492.734 540.378, 521.071 525.422, 533.789 514.706 C 536.657 512.290, 538.645 511.309, 539.789 511.746 C 540.730 512.106, 546.225 515.157, 552 518.528 C 564.227 525.663, 594.657 543.275, 620.887 558.399 C 631 564.229, 639.686 569, 640.188 569 C 640.691 569, 646.366 565.914, 652.801 562.143 C 668.061 553.198, 706.388 531.048, 725.957 519.865 C 739.063 512.374, 741.670 511.219, 743.100 512.265 C 744.028 512.944, 747.422 515.571, 750.643 518.103 C 761.624 526.732, 787.012 539.700, 790.388 538.404 C 792.058 537.764, 800.259 522.117, 799.695 520.647 C 799.427 519.950, 797.249 518.798, 794.854 518.089 C 782.547 514.441, 761.584 501.492, 752.564 491.964 L 748.042 487.189 747.978 446.788 C 747.943 424.567, 747.656 405.400, 747.340 404.193 L 746.767 402 640.050 402 C 581.356 402, 533.033 402.300, 532.667 402.667" stroke="none" fill="#ffffff" fill-rule="evenodd"/><path d="M 610 360.706 C 604.430 362.742, 601.718 369.619, 604.422 374.849 C 607.559 380.915, 615.157 381.996, 620.077 377.077 C 624.304 372.850, 624.132 367.932, 619.600 363.400 C 616.349 360.149, 613.619 359.383, 610 360.706 M 662.500 361.161 C 656.328 364.555, 655.084 372.238, 659.923 377.077 C 667.614 384.768, 680.552 375.770, 675.593 366.179 C 672.952 361.072, 666.888 358.748, 662.500 361.161 M 533.429 424.325 C 533.147 425.058, 533.048 429.673, 533.209 434.579 L 533.500 443.500 640 443.500 L 746.500 443.500 746.500 433.500 L 746.500 423.500 640.220 423.245 C 552.385 423.035, 533.852 423.222, 533.429 424.325 M 533.420 466.347 C 533.144 467.068, 533.048 471.673, 533.209 476.579 L 533.500 485.500 640 485.500 L 746.500 485.500 746.785 475.876 C 747.059 466.587, 746.990 466.230, 744.785 465.635 C 743.528 465.296, 695.570 465.022, 638.212 465.027 C 553.118 465.034, 533.831 465.277, 533.420 466.347" stroke="none" fill="#58585a" fill-rule="evenodd"/><path d="M 479 185.337 L 426.500 215.644 426.246 277.572 L 425.991 339.500 438.390 339.818 C 464.011 340.476, 486.914 345.919, 507.500 356.243 C 516.850 360.932, 529.123 368.909, 533.748 373.302 C 536.909 376.306, 537.035 376.336, 538.466 374.444 C 539.275 373.375, 539.951 372.131, 539.968 371.680 C 540.028 370.136, 546.403 361.502, 551.452 356.126 C 560.710 346.270, 572.367 338.397, 587.394 331.851 C 591.302 330.148, 594.666 328.607, 594.868 328.426 C 595.071 328.245, 592.443 323.125, 589.027 317.048 L 582.817 306 570.159 305.985 C 563.196 305.976, 556.987 305.639, 556.360 305.235 C 554.286 303.899, 547.822 291.906, 548.385 290.439 C 548.841 289.250, 552.594 289, 569.981 289 L 591.025 289 594.341 294.250 C 596.165 297.137, 600.772 305.036, 604.579 311.803 C 611.338 323.817, 611.570 324.093, 614.500 323.579 C 616.150 323.290, 621.550 322.788, 626.500 322.464 C 631.450 322.141, 636.513 321.670, 637.750 321.419 L 640 320.962 639.994 268.731 L 639.987 216.500 637.244 214.928 C 635.735 214.063, 625.275 208.025, 614 201.510 C 581.756 182.878, 577.818 180.607, 554.884 167.425 C 542.995 160.591, 532.870 155.007, 532.384 155.015 C 531.898 155.023, 507.875 168.668, 479 185.337" stroke="none" fill="#92267c" fill-rule="evenodd"/><path d="M 719 170.170 C 703.875 178.958, 686.550 189.027, 680.500 192.545 C 674.450 196.064, 662.879 202.668, 654.787 207.221 L 640.074 215.500 640.037 268.613 L 640 321.726 649.250 322.428 C 654.337 322.814, 660.525 323.529, 663 324.017 C 668.603 325.121, 667.947 325.853, 679.449 305.688 L 688.399 290 709.640 290 C 721.323 290, 731.109 290.368, 731.387 290.818 C 731.665 291.268, 730.092 294.643, 727.891 298.318 L 723.889 305 710.544 305 L 697.199 305 690.477 316.577 C 686.779 322.944, 684.147 328.499, 684.627 328.921 C 685.107 329.343, 688.200 330.744, 691.500 332.034 C 712.338 340.182, 732.218 357.045, 740.091 373.251 L 742.228 377.649 746.100 374.173 C 768.753 353.837, 809.170 340.013, 846 340.003 L 855.500 340 855 277.774 L 854.500 215.548 843.500 209.187 C 837.450 205.688, 830.700 201.806, 828.500 200.561 C 826.300 199.316, 807.262 188.330, 786.192 176.148 C 765.123 163.967, 747.573 154.043, 747.192 154.096 C 746.812 154.148, 734.125 161.382, 719 170.170 M 424.469 278.500 C 424.469 310.950, 424.595 324.080, 424.750 307.678 C 424.904 291.277, 424.904 264.727, 424.749 248.678 C 424.595 232.630, 424.469 246.050, 424.469 278.500 M 562.250 304.735 C 564.862 304.941, 569.138 304.941, 571.750 304.735 C 574.362 304.529, 572.225 304.360, 567 304.360 C 561.775 304.360, 559.638 304.529, 562.250 304.735 M 619.600 363.400 C 624.132 367.932, 624.304 372.850, 620.077 377.077 C 615.151 382.003, 607.559 380.915, 604.413 374.832 C 602.451 371.038, 603.148 366.602, 606.265 363.048 L 608.500 360.500 605.765 362.910 C 598.529 369.287, 603.422 381, 613.323 381 C 616.399 381, 617.902 380.298, 620.600 377.600 C 625.164 373.036, 625.349 367.656, 621.099 363.106 C 619.503 361.398, 617.748 360, 617.199 360 C 616.649 360, 617.730 361.530, 619.600 363.400 M 658.901 363.106 C 652.297 370.175, 657.360 381, 667.269 381 C 674.174 381, 679.557 373.173, 676.962 366.907 C 675.695 363.850, 671.595 359.997, 669.615 360.004 C 669.002 360.006, 669.886 360.853, 671.580 361.885 C 680.632 367.405, 676.733 380, 665.973 380 C 663.850 380, 661.907 379.061, 659.923 377.077 C 655.084 372.238, 656.328 364.555, 662.500 361.161 C 663.629 360.540, 663.912 360.048, 663.151 360.030 C 662.409 360.014, 660.497 361.398, 658.901 363.106 M 532.457 403.251 C 532.193 403.939, 532.095 422.952, 532.239 445.501 L 532.501 486.500 533.001 444.250 C 533.275 421.012, 533.373 402, 533.219 402 C 533.064 402, 532.721 402.563, 532.457 403.251 M 747.456 446.500 C 747.456 468.500, 747.588 477.358, 747.749 466.183 C 747.910 455.009, 747.910 437.009, 747.749 426.183 C 747.587 415.358, 747.455 424.500, 747.456 446.500" stroke="none" fill="#a5cf47" fill-rule="evenodd"/><path d="M 436 12.706 C 427.507 13.422, 407.496 17.025, 400.500 19.098 C 367.530 28.867, 346.383 43.024, 322.500 71.315 C 319.801 74.513, 312.894 85.207, 309.786 91 C 306.036 97.990, 299.274 114.293, 297.757 120 C 295.144 129.831, 293.825 136.828, 292.004 150.500 C 290.066 165.057, 290.007 171.285, 290.004 361.199 C 290 565.694, 289.943 562.535, 294.082 587 C 297.860 609.334, 308.155 632.882, 322.062 651 C 345.204 681.150, 377.631 700.704, 415.738 707.488 C 440.300 711.861, 446.050 711.976, 640 711.976 C 833.950 711.976, 839.700 711.861, 864.262 707.488 C 895.400 701.944, 920.886 689.009, 942.840 667.606 C 965.565 645.452, 979.817 619.198, 985.580 588.878 C 989.977 565.740, 989.959 566.675, 989.980 361.301 C 990.001 157.376, 990.061 160.738, 985.933 136 C 982.858 117.567, 973.333 94.093, 962.614 78.527 C 956.314 69.379, 955.372 68.289, 943.541 56.478 C 920.687 33.663, 896.438 21.489, 860.500 14.789 L 848.500 12.552 644.500 12.439 C 532.300 12.377, 438.475 12.497, 436 12.706 M 636.221 37.001 C 631.715 39.756, 611.963 51.199, 577 71.309 C 516.708 105.988, 483.357 125.235, 467.500 134.502 C 462.550 137.395, 456.925 140.650, 455 141.735 C 453.075 142.819, 443.850 148.121, 434.500 153.516 C 425.150 158.911, 410.750 167.210, 402.500 171.958 C 394.250 176.707, 380.636 184.565, 372.247 189.422 L 356.994 198.253 357.247 361.765 L 357.500 525.277 367 530.787 C 375.488 535.710, 409.784 555.532, 417.500 559.974 C 419.150 560.925, 430.850 567.674, 443.500 574.973 C 456.150 582.272, 475.500 593.424, 486.500 599.756 C 497.500 606.087, 513.250 615.190, 521.500 619.984 C 529.750 624.778, 545.612 633.943, 556.750 640.350 C 578.904 653.095, 610.055 671.076, 627.876 681.406 C 634.133 685.033, 639.581 688, 639.983 688 C 640.384 688, 644.490 685.821, 649.107 683.159 C 653.723 680.496, 666.725 673.004, 678 666.510 C 698.269 654.835, 702.998 652.106, 747 626.691 C 759.375 619.543, 778.500 608.534, 789.500 602.225 C 800.500 595.916, 809.950 590.420, 810.500 590.011 C 811.050 589.602, 813.525 588.152, 816 586.788 C 820.209 584.470, 837.399 574.569, 875.500 552.519 C 884.300 547.427, 898.475 539.233, 907 534.311 L 922.500 525.363 922.753 361.767 L 923.006 198.170 911.753 191.688 C 901.265 185.647, 880.942 173.904, 841 150.807 C 831.925 145.560, 815.275 135.955, 804 129.463 C 792.725 122.971, 776.750 113.757, 768.500 108.988 C 760.250 104.219, 740.225 92.667, 724 83.316 C 707.775 73.966, 690 63.705, 684.500 60.516 C 656.193 44.098, 641.808 35.865, 640.715 35.453 C 640.047 35.202, 638.024 35.898, 636.221 37.001 M 523.316 158.789 C 518.815 161.399, 514.765 163.933, 514.316 164.420 C 513.867 164.907, 516.425 163.638, 520 161.600 C 523.575 159.562, 527.928 157.176, 529.673 156.299 L 532.845 154.703 550.173 164.704 C 569.006 175.573, 573.033 177.759, 571.500 176.279 C 569.949 174.782, 533.454 153.997, 532.418 154.022 C 531.913 154.034, 527.817 156.179, 523.316 158.789 M 494.250 175.573 C 490.813 177.522, 488 179.348, 488 179.631 C 488 180.185, 498.869 174.264, 500.450 172.850 C 502.209 171.276, 500.533 172.012, 494.250 175.573 M 474.996 186.627 C 468.673 190.271, 463.050 193.720, 462.500 194.291 C 461.465 195.366, 464.681 193.625, 478.750 185.497 C 485.858 181.390, 487.880 180, 486.746 180 C 486.606 180, 481.319 182.982, 474.996 186.627 M 578.500 180.740 C 579.050 181.312, 582.200 183.253, 585.500 185.052 C 588.800 186.852, 591.050 187.869, 590.500 187.312 C 589.950 186.756, 586.800 184.815, 583.500 183 C 580.200 181.185, 577.950 180.168, 578.500 180.740 M 592 188.347 C 592 188.780, 596.824 191.690, 605 196.189 C 607.991 197.835, 608.149 197.853, 606.085 196.308 C 602.877 193.907, 592 187.759, 592 188.347 M 454.250 198.573 C 450.813 200.522, 448 202.358, 448 202.653 C 448 203.248, 458.939 197.305, 460.450 195.890 C 462.143 194.304, 460.619 194.963, 454.250 198.573 M 426.200 215.200 C 425.293 216.107, 425 231.342, 425 277.641 C 425 311.324, 424.639 339.105, 424.198 339.377 C 423.757 339.650, 418.470 340.398, 412.448 341.040 C 400.299 342.335, 384.071 345.529, 382.707 346.893 C 381.906 347.694, 389.207 362.468, 390.838 363.347 C 391.202 363.544, 395.550 362.869, 400.500 361.848 C 412.211 359.431, 435.622 358.463, 449.028 359.839 C 479.245 362.942, 507.563 375.212, 524.610 392.588 L 531.720 399.836 533.393 391.319 C 534.314 386.635, 536.196 380.484, 537.576 377.651 C 538.956 374.818, 539.390 373.375, 538.540 374.444 C 537.032 376.342, 536.919 376.315, 533.748 373.302 C 529.123 368.909, 516.850 360.932, 507.500 356.243 C 486.917 345.921, 464.012 340.477, 438.398 339.818 L 426.006 339.500 426.003 277.950 C 426.001 231.408, 426.293 216.107, 427.200 215.200 C 427.860 214.540, 428.175 214, 427.900 214 C 427.625 214, 426.860 214.540, 426.200 215.200 M 548.401 290.396 C 547.908 291.682, 553.555 303, 554.691 303 C 554.966 303, 553.798 300.532, 552.095 297.515 C 550.393 294.498, 549 291.573, 549 291.015 C 549 290.361, 556.443 290, 569.955 290 L 590.911 290 595.069 297 C 597.357 300.850, 599.417 304, 599.649 304 C 600.231 304, 598.316 300.469, 594.362 294.250 L 591.025 289 569.981 289 C 552.893 289, 548.837 289.262, 548.401 290.396 M 555.662 305 C 555.935 305.275, 562.402 305.725, 570.033 306 C 577.923 306.284, 583.531 306.124, 583.032 305.628 C 582.551 305.149, 576.084 304.699, 568.661 304.628 C 561.239 304.558, 555.389 304.725, 555.662 305 M 587.071 313.500 C 588.847 316.800, 590.731 319.950, 591.257 320.500 C 592.764 322.074, 587.353 311.733, 585.501 309.500 C 584.589 308.400, 585.296 310.200, 587.071 313.500 M 593.514 324.843 C 594.412 326.682, 595.002 328.317, 594.824 328.477 C 594.646 328.637, 592.124 329.782, 589.220 331.020 C 586.315 332.259, 584.109 333.442, 584.316 333.649 C 585.116 334.450, 595.999 328.957, 595.978 327.763 C 595.966 327.068, 595.038 325.375, 593.918 324 L 591.880 321.500 593.514 324.843 M 619 323 C 615.597 323.716, 615.583 323.738, 618.500 323.781 C 620.150 323.805, 623.750 323.474, 626.500 323.046 L 631.500 322.267 627 322.265 C 624.525 322.264, 620.925 322.595, 619 323 M 568.127 342.074 C 564.772 344.314, 561.735 346.619, 561.379 347.196 C 560.856 348.042, 573.426 339.885, 574.917 338.412 C 576.407 336.939, 573.340 338.593, 568.127 342.074 M 824 341.490 C 794.540 345.395, 766.540 357.033, 746.517 373.696 L 742.676 376.891 744.841 384.196 C 746.032 388.213, 747.005 392.701, 747.003 394.168 C 746.996 400.215, 747.923 400.037, 755.321 392.574 C 770.481 377.285, 788.845 368.146, 817.101 361.833 C 826.362 359.763, 829.854 359.523, 849 359.640 C 866.485 359.747, 872.180 360.145, 879.500 361.773 C 889.824 364.067, 888.704 364.602, 894.593 354.567 C 898.370 348.131, 898.413 346.537, 894.832 345.756 C 873.964 341.204, 863.399 339.972, 846.500 340.118 C 839.350 340.180, 829.225 340.798, 824 341.490 M 552.854 354.749 C 546.773 361.087, 540 369.960, 540 371.587 C 540 371.987, 542.188 369.206, 544.862 365.407 C 547.536 361.608, 552.066 356.317, 554.928 353.649 C 557.789 350.981, 559.951 348.617, 559.731 348.397 C 559.511 348.177, 556.416 351.035, 552.854 354.749 M 533.671 402.662 C 533.302 403.031, 533 407.871, 533 413.417 L 533 423.500 640.031 423.500 L 747.063 423.500 746.781 413 L 746.500 402.500 640.421 402.245 C 582.078 402.105, 534.040 402.293, 533.671 402.662 M 533 454.500 L 533 465.500 640 465.500 L 747 465.500 747 454.500 L 747 443.500 640 443.500 L 533 443.500 533 454.500 M 528.434 490.926 C 519.130 501.157, 502.442 511.947, 487.250 517.555 C 483.262 519.027, 480.023 520.742, 480.050 521.366 C 480.078 521.990, 482.062 525.875, 484.460 530 C 488.335 536.667, 489.136 537.487, 491.666 537.379 C 498.318 537.096, 522.434 524.121, 532.902 515.193 L 538.304 510.586 542.902 513.176 C 545.431 514.600, 557.400 521.487, 569.500 528.481 C 581.600 535.474, 602.426 547.481, 615.780 555.163 L 640.059 569.131 667.280 553.391 C 682.251 544.734, 697.425 536.002, 701 533.987 C 704.575 531.972, 714.669 526.156, 723.431 521.061 C 732.193 515.967, 739.930 511.581, 740.623 511.314 C 741.317 511.048, 744.552 513.051, 747.812 515.764 C 755.254 521.957, 763.209 526.805, 775.430 532.594 C 785.206 537.225, 792 539.122, 792 537.220 C 792 536.648, 793.800 533.003, 796 529.120 C 798.200 525.238, 800 521.650, 800 521.147 C 800 520.643, 796.737 519.028, 792.750 517.557 C 786.005 515.069, 769.130 506.567, 768 505.088 C 767.725 504.729, 765.232 502.793, 762.461 500.787 C 759.690 498.781, 755.048 494.629, 752.146 491.561 L 746.870 485.982 640.119 485.741 L 533.368 485.500 528.434 490.926" stroke="none" fill="#e87e3f" fill-rule="evenodd"/></svg>