<svg xmlns="http://www.w3.org/2000/svg" width="3000" height="3000" viewBox="0 0 3000 3000" version="1.1"><path d="M 1547.792 1955.750 C 1545.315 1958.912, 1542.513 1963.008, 1541.566 1964.852 C 1539.979 1967.939, 1517.139 2034.333, 1502.642 2078 L 1496.500 2096.500 1490.627 2102.143 L 1484.754 2107.787 1487.992 2147.643 C 1490.425 2177.595, 1491.060 2190.047, 1490.548 2197.750 C 1490.173 2203.387, 1490.186 2212.767, 1490.576 2218.594 C 1491.259 2228.791, 1491.421 2229.358, 1494.896 2233.746 C 1498.330 2238.082, 1499.284 2238.582, 1514.503 2244.042 C 1523.301 2247.199, 1535.112 2251.597, 1540.750 2253.815 L 1551 2257.849 1550.995 2253.675 C 1550.992 2251.379, 1550.098 2236.900, 1549.009 2221.500 C 1547.602 2201.615, 1547.024 2183.170, 1547.014 2157.858 C 1547 2123.458, 1547.155 2120.549, 1551.449 2074.358 C 1556.884 2015.884, 1557.350 2013.929, 1571.883 1988.500 L 1581.027 1972.500 1578.369 1970.500 C 1576.907 1969.400, 1570.786 1964.338, 1564.767 1959.250 C 1558.747 1954.162, 1553.479 1950, 1553.059 1950 C 1552.639 1950, 1550.268 1952.588, 1547.792 1955.750" stroke="none" fill="#cecdb7" fill-rule="evenodd"/><path d="M 1503.003 1725.250 C 1503.009 1728.198, 1493.666 1821.804, 1490.951 1846 C 1486.294 1887.489, 1479.020 1923.114, 1466.630 1965.116 L 1459.073 1990.733 1465.861 2014.116 C 1471.552 2033.726, 1473.590 2042.988, 1478.482 2071.500 C 1481.691 2090.200, 1484.605 2105.837, 1484.958 2106.249 C 1485.310 2106.661, 1488.051 2104.636, 1491.049 2101.749 C 1496.445 2096.553, 1496.562 2096.313, 1502.642 2078 C 1517.139 2034.333, 1539.979 1967.939, 1541.566 1964.852 C 1544.710 1958.733, 1552.257 1949.885, 1553.819 1950.484 C 1555.034 1950.950, 1555.065 1950.783, 1553.999 1949.499 C 1553.293 1948.648, 1547.812 1937.275, 1541.819 1924.226 C 1530.634 1899.870, 1528.615 1893.703, 1522.109 1864 C 1514.088 1827.388, 1507.963 1779.267, 1506.356 1740.250 C 1505.837 1727.645, 1505.386 1724, 1504.344 1724 C 1503.605 1724, 1503.001 1724.563, 1503.003 1725.250" stroke="none" fill="#a9aa88" fill-rule="evenodd"/><path d="M 2058.814 2322.104 C 2056.289 2324.399, 2044.339 2346.672, 2045.181 2347.515 C 2045.405 2347.739, 2052.094 2349.079, 2060.044 2350.493 C 2067.995 2351.908, 2079.208 2353.974, 2084.962 2355.086 C 2101.459 2358.272, 2108.676 2363.300, 2112.574 2374.322 C 2114.289 2379.174, 2114.425 2385.425, 2114.729 2473.500 C 2114.908 2525.200, 2114.666 2596.750, 2114.191 2632.500 C 2113.360 2695.180, 2113.252 2697.736, 2111.167 2704.112 C 2109.978 2707.749, 2108.016 2711.981, 2106.808 2713.517 C 2103.727 2717.434, 2091.363 2722.865, 2080.597 2725.031 C 2075.590 2726.038, 2070.258 2727.332, 2068.747 2727.906 C 2065.329 2729.206, 2062.551 2733.626, 2059.983 2741.855 C 2057.481 2749.873, 2057.402 2754.538, 2059.750 2755.511 C 2063.021 2756.866, 2257.187 2757.388, 2271.945 2756.081 C 2364.492 2747.889, 2438.741 2702.395, 2472.004 2633.500 C 2480.828 2615.222, 2487.867 2591.695, 2491.660 2567.797 C 2493.875 2553.842, 2494.210 2510.640, 2492.212 2496.500 C 2488.626 2471.114, 2482.849 2450.948, 2473.592 2431.500 C 2445.658 2372.815, 2394.403 2335.551, 2325.833 2324.075 C 2303.965 2320.415, 2285.017 2319.826, 2230 2321.098 C 2182.528 2322.195, 2111.926 2321.849, 2076.475 2320.346 C 2061.605 2319.715, 2061.423 2319.734, 2058.814 2322.104 M 2550.413 2320.933 C 2545.568 2322.107, 2544.982 2322.762, 2540.799 2331.688 C 2536.252 2341.392, 2535.181 2346.087, 2537.152 2347.687 C 2537.893 2348.289, 2547.950 2350.212, 2559.500 2351.961 C 2571.050 2353.710, 2582.300 2355.943, 2584.500 2356.924 C 2589.684 2359.234, 2593.772 2363.384, 2596.397 2369 L 2598.500 2373.500 2598.325 2527.215 C 2598.148 2682.987, 2597.829 2697.721, 2594.406 2708.203 C 2592.685 2713.474, 2587.994 2718.201, 2582.836 2719.863 C 2581.001 2720.454, 2571.850 2722.348, 2562.500 2724.072 C 2553.150 2725.797, 2544.996 2727.617, 2544.380 2728.118 C 2541.540 2730.427, 2536.730 2742.489, 2536.247 2748.514 L 2535.744 2754.773 2554.622 2755.636 C 2565.005 2756.110, 2611.750 2756.494, 2658.500 2756.488 C 2734.059 2756.479, 2744.860 2756.284, 2755.745 2754.729 C 2788.429 2750.062, 2818.445 2738.759, 2845.188 2721.050 C 2882.043 2696.644, 2900.059 2666.656, 2903.510 2623.967 C 2905.822 2595.385, 2894.152 2564.747, 2873.472 2545.104 C 2859.827 2532.142, 2846.957 2524.833, 2820.500 2515.019 C 2812.800 2512.163, 2806.362 2509.689, 2806.193 2509.522 C 2806.024 2509.356, 2812.494 2505.232, 2820.570 2500.360 C 2842.934 2486.867, 2854.052 2475.516, 2862.548 2457.500 C 2867.629 2446.726, 2869.949 2437.806, 2870.701 2426.152 C 2872.319 2401.064, 2863.389 2374.437, 2847.534 2357.084 C 2834.551 2342.873, 2808.798 2329.926, 2783 2324.639 C 2766.849 2321.330, 2755.007 2321.012, 2657 2321.257 C 2603.375 2321.391, 2558.150 2321.204, 2556.500 2320.843 C 2554.850 2320.481, 2552.111 2320.522, 2550.413 2320.933 M 2203.279 2354.068 C 2193.918 2354.974, 2190.561 2356.310, 2187.601 2360.309 C 2185.719 2362.851, 2185.458 2365.031, 2184.852 2383.309 C 2183.868 2412.970, 2183.955 2643.306, 2184.958 2665.500 C 2185.900 2686.321, 2187.209 2692.083, 2192.870 2700.310 C 2198.296 2708.198, 2206.214 2712.788, 2222.488 2717.481 C 2236.507 2721.524, 2248.604 2723.086, 2265.849 2723.081 C 2295.262 2723.072, 2315.955 2718.627, 2337.375 2707.716 C 2350.512 2701.024, 2360.484 2693.438, 2372.095 2681.301 C 2403.581 2648.390, 2420.295 2601.609, 2420.434 2546 C 2420.584 2486.136, 2405.116 2440.243, 2373.705 2407.360 C 2358.451 2391.391, 2345.068 2381.559, 2325.500 2371.945 C 2306.092 2362.409, 2284.531 2356.504, 2260.144 2354.044 C 2248.401 2352.860, 2215.622 2352.874, 2203.279 2354.068 M 2678.644 2355.010 C 2674.286 2355.567, 2672.115 2356.430, 2670.161 2358.384 C 2667.546 2360.999, 2667.532 2361.102, 2666.847 2381.755 C 2666.468 2393.165, 2665.959 2424.463, 2665.715 2451.307 C 2665.316 2495.164, 2665.435 2500.314, 2666.886 2502.094 C 2670.723 2506.801, 2738.038 2506.722, 2756.548 2501.988 C 2778.726 2496.316, 2793.807 2479.854, 2798.553 2456.140 C 2800.870 2444.561, 2800.137 2417.294, 2797.271 2408.500 C 2789.701 2385.264, 2772.656 2368.861, 2748 2361.084 C 2729.648 2355.296, 2698.063 2352.530, 2678.644 2355.010 M 2669.389 2538.991 C 2668.228 2539.454, 2666.988 2540.588, 2666.634 2541.511 C 2665.720 2543.893, 2665.985 2640.428, 2666.973 2665 C 2667.648 2681.793, 2668.198 2686.766, 2670.010 2692.500 C 2675.790 2710.783, 2683.829 2717.068, 2706.554 2721.071 C 2715.012 2722.561, 2722.879 2723.188, 2733.500 2723.221 C 2773.637 2723.342, 2800.568 2711.114, 2816.516 2685.527 C 2828.184 2666.805, 2832.491 2641.901, 2828.539 2616 C 2824.046 2586.554, 2809.397 2566.729, 2782 2553.014 C 2760.399 2542.202, 2750.039 2540.236, 2710.751 2539.494 C 2694.663 2539.190, 2679.250 2538.763, 2676.500 2538.545 C 2673.750 2538.328, 2670.550 2538.528, 2669.389 2538.991" stroke="none" fill="#94795d" fill-rule="evenodd"/><path d="M 1201.472 2461.032 C 1177.731 2463.481, 1150.361 2477.058, 1118.602 2502.139 L 1110.705 2508.376 1111.331 2501.438 C 1113.086 2481.987, 1113.230 2474.797, 1111.981 2468.910 C 1111.270 2465.559, 1110.136 2462.606, 1109.460 2462.346 C 1108.785 2462.087, 1101.543 2463.958, 1093.366 2466.504 C 1071.931 2473.178, 1051.215 2478.387, 1029.500 2482.566 C 1010.040 2486.310, 1004.313 2488.287, 1001.566 2492.209 C 999.481 2495.185, 999.577 2501.262, 1001.750 2503.913 C 1002.724 2505.101, 1012.735 2510, 1024.319 2514.959 C 1035.770 2519.860, 1045.856 2524.462, 1046.732 2525.185 C 1047.608 2525.908, 1049.155 2528.373, 1050.170 2530.662 C 1051.943 2534.661, 1051.977 2538.206, 1051.024 2620.905 C 1049.969 2712.489, 1050.065 2710.910, 1045.212 2716.343 C 1042.575 2719.295, 1036.268 2721.618, 1024.370 2724.022 C 1007.439 2727.442, 1007.038 2727.825, 1007.014 2740.601 C 1006.998 2748.517, 1008.341 2753.533, 1010.719 2754.446 C 1013.609 2755.555, 1147.221 2755.054, 1151.332 2753.919 C 1156.282 2752.552, 1158.005 2748.634, 1157.986 2738.782 C 1157.964 2726.810, 1158.820 2727.604, 1143.195 2725.059 C 1121.024 2721.448, 1117.154 2719.448, 1114.878 2710.423 C 1113.744 2705.929, 1111.734 2596.257, 1112.193 2564 C 1112.496 2542.766, 1112.535 2542.429, 1115.300 2536.799 C 1118.254 2530.783, 1122.451 2527.078, 1133 2521.174 C 1146.486 2513.625, 1161.131 2509.923, 1177.502 2509.923 C 1196.607 2509.923, 1210.556 2515.464, 1221.851 2527.540 C 1228.862 2535.036, 1232.473 2541.621, 1235.007 2551.527 C 1237.747 2562.240, 1239.228 2606.527, 1238.819 2665.500 C 1238.501 2711.313, 1238.491 2711.515, 1236.231 2715.149 C 1233.070 2720.232, 1226.299 2722.588, 1203.762 2726.446 C 1198.199 2727.398, 1196.400 2732.683, 1197.611 2744.508 C 1198.806 2756.171, 1191.328 2755.073, 1269.185 2755.021 C 1306.411 2754.996, 1338.279 2754.694, 1340.003 2754.349 C 1344.914 2753.367, 1346.386 2750.075, 1346.827 2739.088 C 1347.303 2727.233, 1346.951 2726.818, 1334.500 2724.546 C 1323.254 2722.494, 1310.499 2718.658, 1306.301 2716.066 C 1304.137 2714.730, 1302.773 2712.863, 1302.085 2710.296 C 1301.475 2708.020, 1300.831 2680.067, 1300.476 2640.500 C 1300.151 2604.200, 1299.439 2568.650, 1298.895 2561.500 C 1295.358 2515.029, 1278.762 2485.324, 1247.500 2469.514 C 1233.152 2462.258, 1217.514 2459.376, 1201.472 2461.032 M 805.668 2463.018 C 759.708 2467.326, 710.511 2494.288, 688.718 2527.111 C 663.264 2565.448, 657.975 2618.385, 674.586 2668.553 C 682.132 2691.342, 691.014 2706.266, 705.875 2721.122 C 731.430 2746.669, 763.192 2759.309, 801.500 2759.176 C 847.330 2759.017, 889.600 2741.773, 917.333 2711.921 C 939.572 2687.982, 952.376 2657.852, 956.121 2620.647 C 958.145 2600.539, 955.132 2574.708, 948.290 2553.500 C 936.751 2517.736, 915.672 2492.589, 884.552 2477.463 C 861.090 2466.059, 831.340 2460.611, 805.668 2463.018 M 189.500 2467.047 C 183.450 2469.142, 161.625 2474.731, 141 2479.467 C 118.382 2484.660, 102.508 2488.792, 101 2489.878 C 97.106 2492.684, 95.575 2496.559, 97 2500.001 C 97.900 2502.173, 99.767 2503.513, 104.841 2505.627 C 140.613 2520.535, 144.019 2522.408, 146.603 2528.593 C 147.757 2531.353, 147.992 2544.527, 147.954 2604.218 C 147.929 2643.973, 147.541 2683.557, 147.093 2692.183 C 145.793 2717.172, 143.248 2720.148, 118.500 2725.603 C 100.247 2729.626, 101.883 2728.113, 102.216 2740.668 L 102.500 2751.360 105.449 2752.147 C 107.071 2752.579, 139.299 2752.651, 177.066 2752.305 L 245.734 2751.676 246.367 2744.187 C 247.484 2730.978, 247.290 2729.105, 244.750 2728.522 C 243.512 2728.238, 236.806 2726.913, 229.847 2725.578 C 222.887 2724.244, 215.853 2722.458, 214.216 2721.612 C 210.107 2719.487, 206.232 2714.624, 205.125 2710.205 C 203.755 2704.734, 202.840 2543.162, 204.153 2538.409 C 205.714 2532.755, 207.730 2530.495, 216 2525.130 C 235.643 2512.387, 254.260 2506.038, 272 2506.032 C 295.314 2506.025, 312.442 2516.577, 322.309 2537.026 C 330.863 2554.754, 331.915 2562.810, 332.623 2616 C 333.193 2658.898, 331.336 2708.556, 328.991 2713.103 C 325.238 2720.383, 321.563 2722.162, 302.343 2726.005 C 296.379 2727.197, 290.555 2728.775, 289.400 2729.511 C 286.951 2731.072, 285.678 2739.489, 286.651 2747.698 L 287.241 2752.682 358.086 2752.542 C 397.051 2752.465, 429.284 2752.050, 429.715 2751.619 C 430.917 2750.419, 431.291 2733.836, 430.181 2730.947 C 429.291 2728.632, 428.008 2728.134, 416.350 2725.581 C 400.433 2722.095, 393.900 2719.185, 390.802 2714.202 L 388.500 2710.500 387.863 2636 C 387.512 2595.025, 386.886 2555.410, 386.472 2547.968 L 385.719 2534.435 388.717 2531.468 C 393.054 2527.176, 406.117 2519.592, 416.381 2515.407 C 459.672 2497.759, 498.871 2513.411, 509.444 2552.567 C 512.107 2562.429, 513.112 2592.357, 512.798 2652.500 C 512.509 2707.731, 512.436 2709.621, 510.449 2713.409 C 507.742 2718.568, 501.231 2722.145, 488.500 2725.465 C 474.002 2729.246, 473.564 2729.684, 473.214 2740.747 C 472.991 2747.801, 473.263 2750.120, 474.455 2751.312 C 475.805 2752.663, 483.977 2752.775, 545.241 2752.286 C 583.333 2751.981, 614.638 2751.617, 614.807 2751.476 C 615.421 2750.963, 617.968 2730.758, 617.512 2730.019 C 617.253 2729.601, 615.570 2728.971, 613.771 2728.620 C 606.036 2727.109, 583.208 2720.581, 580 2718.961 C 575.130 2716.503, 572.368 2713.212, 571.071 2708.324 C 570.296 2705.406, 570.044 2682.366, 570.231 2631.824 C 570.519 2554.371, 570.431 2552.574, 565.378 2533.126 C 555.694 2495.854, 531.735 2471.040, 499.066 2464.447 C 488.105 2462.234, 469.878 2462.898, 458.782 2465.913 C 440.832 2470.791, 421.034 2480.827, 396.194 2497.640 C 387.775 2503.338, 380.324 2508, 379.635 2508 C 377.639 2508, 375.681 2506.010, 369.604 2497.804 C 345.992 2465.922, 315.188 2456.080, 277 2468.218 C 259.077 2473.914, 239.585 2484.258, 219.704 2498.622 C 214.092 2502.677, 208.690 2505.996, 207.699 2505.997 C 204.352 2506.002, 203.229 2500.605, 204.161 2489 C 205.301 2474.802, 204.379 2462.958, 202.146 2463.118 C 201.241 2463.183, 195.550 2464.951, 189.500 2467.047 M 1495.825 2464.526 C 1484.455 2466.077, 1469.713 2469.944, 1459.082 2474.164 C 1418.356 2490.330, 1394.246 2515.335, 1386.976 2548.943 C 1381.415 2574.655, 1384.552 2602.801, 1395.278 2623.417 C 1405.430 2642.932, 1418.721 2654.577, 1443.250 2665.451 C 1447.875 2667.501, 1451 2669.483, 1451 2670.365 C 1451 2672.843, 1444.120 2677.924, 1422.777 2691.208 C 1402.209 2704.010, 1400 2705.967, 1400 2711.391 C 1400 2715.035, 1403.730 2724.904, 1407.081 2730.126 C 1411.097 2736.384, 1421.143 2745.627, 1428.580 2749.906 C 1431.836 2751.779, 1436.232 2754.403, 1438.349 2755.736 L 1442.199 2758.160 1439.849 2760.699 C 1438.557 2762.095, 1427.731 2771.058, 1415.790 2780.616 C 1386.554 2804.018, 1381.820 2808.559, 1377.475 2817.368 C 1371.510 2829.463, 1370.902 2839.089, 1375.106 2854.895 C 1383.365 2885.944, 1405.989 2908.077, 1440 2918.380 C 1484.949 2931.997, 1529.580 2928.810, 1571.731 2908.972 C 1601.534 2894.946, 1627.873 2873.596, 1642.435 2851.661 C 1656.404 2830.619, 1663.841 2802.751, 1661.009 2782.064 C 1658.011 2760.167, 1646.380 2741.899, 1628.586 2731.135 C 1614.844 2722.822, 1601.500 2720.282, 1538.500 2713.987 C 1481.243 2708.265, 1475.393 2706.939, 1470.486 2698.566 C 1465.898 2690.737, 1467.838 2681.303, 1475.121 2676.027 C 1479.726 2672.691, 1484.332 2671.489, 1498 2670.057 C 1519.965 2667.755, 1535.838 2663.234, 1553.286 2654.309 C 1585.573 2637.794, 1605.436 2613.036, 1612.591 2580.389 C 1615.156 2568.681, 1614.939 2543.844, 1612.150 2530.065 C 1610.988 2524.325, 1610.147 2519.519, 1610.282 2519.385 C 1610.416 2519.251, 1615.020 2519.821, 1620.513 2520.653 C 1637.290 2523.193, 1647.243 2520.897, 1655.541 2512.574 C 1664.591 2503.495, 1667.663 2492.908, 1665.877 2476.946 C 1665.364 2472.362, 1664.757 2468.424, 1664.528 2468.195 C 1664.300 2467.966, 1661.500 2469.807, 1658.306 2472.285 C 1646.618 2481.356, 1637.946 2483.963, 1619.381 2483.985 C 1603.836 2484.004, 1592.363 2481.967, 1579.105 2476.832 C 1547.327 2464.527, 1522.603 2460.873, 1495.825 2464.526 M 1833.500 2463.619 C 1812.930 2466.582, 1786.399 2475.479, 1769 2485.249 C 1730.497 2506.870, 1708.660 2537.387, 1700.296 2581.264 C 1698.942 2588.365, 1698.541 2595.585, 1698.558 2612.500 C 1698.578 2631.537, 1698.885 2635.898, 1700.836 2644.880 C 1714.320 2706.953, 1746.914 2742.599, 1802.253 2755.792 C 1812.732 2758.291, 1815.037 2758.473, 1836 2758.464 C 1855.513 2758.455, 1859.796 2758.162, 1868.259 2756.258 C 1920.826 2744.433, 1960.020 2713.258, 1977.336 2669.500 C 1992.921 2630.115, 1992.808 2577.421, 1977.061 2540.896 C 1962.604 2507.362, 1934.329 2481.361, 1900 2470.032 C 1885.069 2465.104, 1876.377 2463.812, 1856 2463.493 C 1845.275 2463.325, 1835.150 2463.382, 1833.500 2463.619 M 1487 2491.123 C 1454.728 2494.542, 1435.945 2526.640, 1441.427 2569 C 1446.719 2609.893, 1463.022 2632.461, 1492.766 2640.068 C 1517.212 2646.320, 1539.476 2636.726, 1549.965 2615.419 C 1551.692 2611.912, 1554.295 2604.645, 1555.750 2599.271 C 1558.162 2590.359, 1558.395 2587.875, 1558.395 2571 C 1558.395 2554.082, 1558.166 2551.656, 1555.724 2542.628 C 1554.255 2537.199, 1551.176 2528.874, 1548.882 2524.128 C 1537.870 2501.353, 1513.440 2488.323, 1487 2491.123 M 788 2493.952 C 766.284 2497.041, 749.260 2509.383, 739.653 2529 C 725.811 2557.268, 723.042 2600.498, 732.609 2639 C 736.140 2653.211, 743.873 2672.728, 750.248 2683.517 C 756.311 2693.777, 770.137 2708.454, 779.429 2714.492 C 792.915 2723.255, 809.212 2728.129, 825 2728.119 C 843.723 2728.109, 855.739 2723.252, 868.565 2710.511 C 878.264 2700.877, 883.916 2690.728, 887.541 2676.438 C 890.270 2665.679, 895.368 2630.775, 894.587 2628.194 C 894.305 2627.262, 893.581 2619.750, 892.978 2611.500 C 891.048 2585.093, 886.682 2567.366, 877.462 2548.500 C 867.055 2527.208, 851.966 2511.044, 834.500 2502.478 C 820.378 2495.552, 801.316 2492.057, 788 2493.952 M 1821 2493.968 C 1806.923 2495.929, 1794.534 2501.900, 1785.133 2511.255 C 1773.928 2522.405, 1768.272 2534.443, 1763.276 2557.779 C 1760.740 2569.626, 1760.553 2572.150, 1760.556 2594.500 C 1760.559 2621.343, 1761.703 2629.232, 1768.601 2650 C 1781.932 2690.135, 1802.872 2714.255, 1833 2724.176 C 1845.183 2728.188, 1863.509 2729.243, 1873.913 2726.532 C 1884.621 2723.741, 1893.723 2718.504, 1901.582 2710.612 C 1912.371 2699.777, 1918.064 2688.316, 1922.004 2669.500 C 1924.868 2655.827, 1928.265 2628.786, 1927.205 2628.097 C 1926.700 2627.769, 1926.022 2620.975, 1925.699 2613 C 1923.586 2560.787, 1901.221 2518.740, 1866.674 2502.030 C 1853.310 2495.566, 1833.996 2492.157, 1821 2493.968 M 1483 2765.952 C 1466.655 2768.052, 1458.988 2772.042, 1445.441 2785.500 C 1434.614 2796.256, 1430.256 2803.079, 1427.531 2813.542 C 1421.103 2838.220, 1436.412 2864.591, 1465.544 2879.022 C 1488.106 2890.199, 1527.738 2893.274, 1554.816 2885.949 C 1575.527 2880.346, 1591.460 2869.640, 1600.961 2854.939 C 1612.632 2836.882, 1613.657 2813.742, 1603.552 2796.498 C 1592.342 2777.370, 1559.899 2766.981, 1507 2765.581 C 1497.375 2765.326, 1486.575 2765.493, 1483 2765.952" stroke="none" fill="#50382b" fill-rule="evenodd"/><path d="M 1066.150 757.750 C 1064.231 762.579, 1055.284 794.830, 1050.128 815.500 C 1031.163 891.532, 1018.494 974.110, 1010.929 1071 C 1009.107 1094.340, 1008.870 1103.190, 1009.366 1129.500 C 1009.687 1146.550, 1010.402 1167.700, 1010.955 1176.500 C 1011.507 1185.300, 1012.434 1200.150, 1013.013 1209.500 C 1017.054 1274.656, 1029.483 1342.262, 1049.956 1410.453 C 1097.617 1569.195, 1178.439 1709.339, 1297.966 1840.500 C 1324.806 1869.952, 1369.266 1913.714, 1394.536 1935.555 C 1434.998 1970.524, 1458.495 1989.861, 1459.085 1988.675 C 1459.406 1988.029, 1462.982 1976.103, 1467.031 1962.173 C 1471.988 1945.120, 1474.084 1936.431, 1473.447 1935.573 C 1465.638 1925.068, 1465.090 1923.654, 1441.589 1853.484 C 1428.698 1814.993, 1391.103 1702.725, 1358.044 1604 C 1324.985 1505.275, 1289.560 1399.525, 1279.324 1369 C 1269.087 1338.475, 1247.005 1272.550, 1230.252 1222.500 C 1110.007 863.248, 1077.760 767.926, 1075.028 763.660 C 1072.867 760.286, 1068.376 755, 1067.669 755 C 1067.435 755, 1066.751 756.237, 1066.150 757.750" stroke="none" fill="#45a538" fill-rule="evenodd"/><path d="M 1125.210 599.811 C 1124.004 603.251, 1081.750 717.349, 1073.868 738.451 L 1067.910 754.402 1069.965 756.951 C 1071.096 758.353, 1073.131 761.081, 1074.487 763.014 C 1077.642 767.509, 1102.968 842.216, 1230.252 1222.500 C 1247.005 1272.550, 1269.087 1338.475, 1279.324 1369 C 1289.560 1399.525, 1324.985 1505.275, 1358.044 1604 C 1391.103 1702.725, 1428.698 1814.993, 1441.589 1853.484 C 1465.118 1923.738, 1465.580 1924.928, 1473.483 1935.630 C 1474.175 1936.568, 1475.723 1931.126, 1478.717 1917.231 C 1484.950 1888.310, 1486.773 1877.795, 1489.508 1855 C 1491.714 1836.609, 1499.963 1754.991, 1501.535 1736 C 1501.877 1731.875, 1502.988 1725.125, 1504.005 1721 C 1505.021 1716.875, 1506.337 1706.525, 1506.928 1698 C 1507.519 1689.475, 1508.281 1679.671, 1508.622 1676.213 L 1509.241 1669.927 1502.467 1672.476 C 1498.741 1673.879, 1495.600 1674.908, 1495.488 1674.763 C 1495.375 1674.618, 1493.374 1668.875, 1491.041 1662 C 1488.708 1655.125, 1483.733 1640.500, 1479.985 1629.500 C 1467.338 1592.382, 1438.474 1507.397, 1423.265 1462.500 C 1418.048 1447.100, 1370.666 1305.350, 1317.971 1147.500 C 1265.276 989.650, 1211.066 827.650, 1197.504 787.500 C 1183.942 747.350, 1172.016 712.025, 1171.003 709 C 1166.759 696.334, 1138.140 612.336, 1137.444 610.500 C 1136.477 607.954, 1128.879 598.280, 1127.327 597.620 C 1126.681 597.346, 1125.729 598.332, 1125.210 599.811" stroke="none" fill="#4aa73c" fill-rule="evenodd"/><path d="M 1191.500 476.715 C 1179.400 499.067, 1159.938 534.938, 1148.251 556.428 C 1136.564 577.917, 1127.001 596.025, 1127.001 596.667 C 1127 597.308, 1127.346 597.983, 1127.769 598.167 C 1129.088 598.738, 1136.675 608.396, 1137.458 610.500 C 1138.177 612.431, 1167.255 697.817, 1171.003 709 C 1172.016 712.025, 1183.942 747.350, 1197.504 787.500 C 1211.066 827.650, 1265.276 989.650, 1317.971 1147.500 C 1370.666 1305.350, 1418.048 1447.100, 1423.265 1462.500 C 1438.474 1507.397, 1467.338 1592.382, 1479.985 1629.500 C 1483.733 1640.500, 1488.708 1655.125, 1491.041 1662 C 1493.374 1668.875, 1495.374 1674.618, 1495.487 1674.762 C 1495.599 1674.907, 1498.573 1673.942, 1502.096 1672.618 C 1508.402 1670.249, 1508.510 1670.146, 1509.129 1665.856 C 1510.352 1657.387, 1512.053 1623.646, 1514.969 1550 C 1518.691 1456.043, 1519.013 1443.448, 1520.600 1330 L 1521.209 1286.500 1515.222 1293 L 1509.235 1299.500 1505.534 1291.619 C 1503.499 1287.284, 1449.285 1126.409, 1385.058 934.119 C 1234.341 482.882, 1223.024 449.448, 1218.475 441.958 C 1216.484 438.681, 1214.550 436.017, 1214.178 436.038 C 1213.805 436.058, 1203.600 454.363, 1191.500 476.715" stroke="none" fill="#4faa41" fill-rule="evenodd"/><path d="M 1268.199 364.080 L 1214.173 435.160 1218.089 441.406 C 1222.981 449.209, 1230.804 472.292, 1385.058 934.119 C 1449.285 1126.409, 1503.499 1287.284, 1505.534 1291.619 L 1509.235 1299.500 1515.224 1293 L 1521.214 1286.500 1520.605 1180.500 C 1519.779 1037.021, 1519.096 941.292, 1518.473 882 L 1517.953 832.500 1513.139 828 C 1510.491 825.525, 1507.804 822.782, 1507.168 821.904 C 1505.894 820.146, 1499.419 801.084, 1440.802 626.500 C 1418.828 561.050, 1399.103 502.325, 1396.970 496 C 1376.826 436.265, 1369.910 415.841, 1354.987 372 C 1345.532 344.225, 1336.447 317.549, 1334.798 312.719 C 1332.710 306.602, 1330.449 302.280, 1327.345 298.469 C 1324.895 295.461, 1322.740 293, 1322.557 293 C 1322.374 293, 1297.913 324.986, 1268.199 364.080" stroke="none" fill="#57ae47" fill-rule="evenodd"/><path d="M 1490.083 77.174 C 1489.441 79.003, 1488.503 84.820, 1487.996 90.100 C 1486.401 106.733, 1483.430 117.078, 1475.961 132 C 1465.770 152.360, 1453.089 166.644, 1406.500 210.244 C 1394.950 221.052, 1371.375 244.047, 1354.110 261.344 L 1322.720 292.792 1327.261 298.365 C 1330.453 302.284, 1332.691 306.546, 1334.798 312.719 C 1336.447 317.549, 1345.532 344.225, 1354.987 372 C 1369.910 415.841, 1376.826 436.265, 1396.970 496 C 1399.103 502.325, 1418.828 561.050, 1440.802 626.500 C 1500.851 805.347, 1505.718 819.641, 1507.507 822.370 C 1508.414 823.754, 1511.219 826.578, 1513.741 828.644 L 1518.327 832.402 1517.712 826.451 C 1515.786 807.814, 1514.820 761.917, 1513.481 625.500 C 1512.661 541.900, 1511.757 461.350, 1511.472 446.500 C 1511.188 431.650, 1510.509 394.075, 1509.963 363 C 1507.644 230.902, 1506.310 194.314, 1502.466 157.417 C 1500.441 137.977, 1499.927 128.324, 1500.129 113.500 L 1500.387 94.500 1496.545 85 C 1494.432 79.775, 1492.376 75.128, 1491.976 74.674 C 1491.576 74.220, 1490.724 75.345, 1490.083 77.174" stroke="none" fill="#60b24f" fill-rule="evenodd"/><path d="M 1500.796 106 C 1500.304 125.020, 1500.908 137.985, 1503.405 162 C 1506.742 194.091, 1508.564 245.122, 1510.476 360 C 1510.773 377.875, 1511.234 402.625, 1511.500 415 C 1512.024 439.421, 1512.562 483.919, 1514.501 663.500 C 1515.643 769.227, 1516.208 797.450, 1517.571 816.879 C 1518.357 828.088, 1519 840.350, 1519 844.129 C 1519 847.908, 1519.429 851, 1519.954 851 C 1520.479 851, 1532.741 849.009, 1547.204 846.576 C 1572.287 842.356, 1613.256 835.683, 1680 824.947 C 1720.570 818.422, 1712.027 819.762, 1846 798.911 C 1852.875 797.841, 1873.800 794.724, 1892.500 791.984 C 1911.200 789.244, 1927.494 786.773, 1928.709 786.492 C 1930.881 785.991, 1930.808 785.656, 1924.365 766.741 C 1903.046 704.149, 1882.024 654.064, 1852.490 595.500 C 1817.030 525.187, 1783.969 471.691, 1736.612 408 C 1704.176 364.376, 1665.766 320.102, 1619.926 273.500 C 1593.788 246.927, 1582.932 235.183, 1572.321 222 C 1554.113 199.379, 1549.001 190.424, 1504.106 102.500 L 1501.042 96.500 1500.796 106" stroke="none" fill="#46a037" fill-rule="evenodd"/><path d="M 1920.500 787.693 C 1915.550 788.486, 1893.725 791.802, 1872 795.061 C 1839.480 799.939, 1767.760 811.019, 1720.500 818.466 C 1651.423 829.350, 1519.699 850.968, 1519.157 851.509 C 1518.963 851.704, 1519.521 953.706, 1520.398 1078.182 C 1521.275 1202.657, 1521.801 1305.850, 1521.566 1307.500 C 1521.332 1309.150, 1520.880 1331.875, 1520.562 1358 C 1520.244 1384.125, 1519.694 1418.888, 1519.339 1435.250 C 1518.960 1452.757, 1519.066 1464.994, 1519.597 1464.985 C 1521.331 1464.955, 1522.570 1463.467, 1524.501 1459.092 C 1529.007 1448.881, 1536.160 1442.517, 1546.405 1439.602 C 1551.400 1438.181, 1560.564 1436.737, 1572.500 1435.489 C 1575.800 1435.145, 1586.375 1433.525, 1596 1431.890 C 1605.625 1430.255, 1614.625 1428.735, 1616 1428.512 C 1617.375 1428.289, 1628.400 1426.481, 1640.500 1424.494 C 1652.600 1422.507, 1663.625 1420.705, 1665 1420.489 C 1666.375 1420.273, 1672.900 1419.202, 1679.500 1418.108 C 1686.100 1417.015, 1693.300 1415.865, 1695.500 1415.553 C 1697.700 1415.240, 1706.250 1413.882, 1714.500 1412.534 C 1722.750 1411.186, 1738.050 1408.703, 1748.500 1407.015 C 1758.950 1405.327, 1772.900 1403.067, 1779.500 1401.994 C 1792.012 1399.959, 1825.935 1394.523, 1832 1393.581 C 1833.925 1393.282, 1839.550 1392.348, 1844.500 1391.506 C 1849.450 1390.663, 1860.475 1388.890, 1869 1387.565 C 1877.525 1386.241, 1898.896 1382.842, 1916.490 1380.013 C 1941.448 1376.001, 1950.396 1374.940, 1957.192 1375.185 C 1965.185 1375.474, 1965.951 1375.335, 1966.486 1373.500 C 1974.873 1344.727, 1984.339 1280.086, 1988.669 1222 C 1990.857 1192.658, 1991.178 1104.382, 1989.210 1073.500 C 1982.977 975.706, 1969.419 905.483, 1937.902 807.750 C 1934.044 795.788, 1930.575 786.056, 1930.194 786.125 C 1929.812 786.194, 1925.450 786.900, 1920.500 787.693" stroke="none" fill="#439934" fill-rule="evenodd"/><path d="M 1934 1377.090 C 1927.675 1378.138, 1909.675 1381.040, 1894 1383.541 C 1878.325 1386.041, 1858.525 1389.244, 1850 1390.659 C 1841.475 1392.074, 1833.150 1393.432, 1831.500 1393.677 C 1827.740 1394.235, 1795.470 1399.396, 1779.500 1401.994 C 1772.900 1403.067, 1758.950 1405.327, 1748.500 1407.015 C 1738.050 1408.703, 1722.750 1411.186, 1714.500 1412.534 C 1706.250 1413.882, 1697.700 1415.240, 1695.500 1415.553 C 1693.300 1415.865, 1686.100 1417.015, 1679.500 1418.108 C 1672.900 1419.202, 1666.375 1420.273, 1665 1420.489 C 1663.625 1420.705, 1652.600 1422.507, 1640.500 1424.494 C 1628.400 1426.481, 1617.375 1428.289, 1616 1428.512 C 1614.625 1428.735, 1605.625 1430.255, 1596 1431.890 C 1586.375 1433.525, 1575.800 1435.145, 1572.500 1435.489 C 1560.564 1436.737, 1551.400 1438.181, 1546.405 1439.602 C 1536.043 1442.550, 1528.527 1449.336, 1524.336 1459.527 C 1523.326 1461.983, 1522.275 1464.001, 1522 1464.012 C 1519.176 1464.119, 1518.919 1467.579, 1515.504 1551.559 C 1513.582 1598.827, 1511.577 1643.125, 1511.049 1650 C 1506.010 1715.604, 1505.739 1721.824, 1506.950 1744 C 1509.333 1787.663, 1514.159 1824.692, 1522.522 1863.500 C 1528.953 1893.339, 1531.165 1900.214, 1541.667 1923 C 1547.117 1934.825, 1552.009 1945.444, 1552.538 1946.599 C 1553.433 1948.552, 1570.042 1963.249, 1578.023 1969.150 L 1581.546 1971.755 1594.523 1961.715 C 1632.718 1932.164, 1641.614 1924.428, 1670.070 1896.021 C 1720.627 1845.552, 1743.808 1820.418, 1771.079 1786.500 C 1819.877 1725.811, 1854.809 1668.573, 1892.401 1587.711 C 1922.272 1523.457, 1936.287 1485.983, 1950.449 1432.500 C 1953.507 1420.950, 1958.032 1404.020, 1960.505 1394.877 C 1962.977 1385.734, 1965 1377.521, 1965 1376.627 C 1965 1375.229, 1963.626 1375.013, 1955.250 1375.093 C 1949.888 1375.144, 1940.325 1376.043, 1934 1377.090" stroke="none" fill="#409433" fill-rule="evenodd"/></svg>