<svg xmlns="http://www.w3.org/2000/svg" width="1001" height="1001" viewBox="0 0 1001 1001" version="1.1"><path d="M 231.005 372.250 L 231.009 518.500 264.454 536.345 C 282.848 546.160, 298.259 554.147, 298.699 554.095 C 299.140 554.043, 299.725 520.622, 300 479.826 L 300.500 405.652 345.889 493.076 C 370.852 541.159, 393.316 584.044, 395.807 588.374 C 402.202 599.492, 409.066 606.418, 421.152 613.945 C 442.034 626.951, 480.421 650, 481.199 650 C 481.640 650, 482 583.285, 482 501.744 L 482 353.488 443.500 334.246 L 405 315.003 404.985 396.752 L 404.970 478.500 390.402 447.500 C 324.349 306.947, 304.493 265.209, 302.795 263.345 C 301.187 261.581, 233.290 226, 231.532 226 C 231.239 226, 231.002 291.813, 231.005 372.250 M 113 790.500 L 113 877 130.991 877 L 148.983 877 149.241 823.407 L 149.500 769.813 190.367 821.460 C 212.844 849.866, 232.397 873.871, 233.818 874.804 C 235.873 876.153, 239.331 876.566, 250.701 876.824 L 265 877.148 265 790.574 L 265 704 247.009 704 L 229.017 704 228.759 757.579 L 228.500 811.158 188.104 760.045 C 165.886 731.932, 146.389 707.822, 144.777 706.466 C 141.958 704.094, 141.296 704, 127.423 704 L 113 704 113 790.500 M 620 790.500 L 620 877 640.500 877 L 661 877 661 848.103 L 661 819.205 681.250 818.744 C 698.311 818.356, 702.679 817.935, 708.984 816.073 C 734.921 808.414, 749.004 790.982, 750.643 764.506 C 752.359 736.798, 738.514 716.520, 711.806 707.625 C 702.665 704.581, 694.134 704.015, 657.250 704.008 L 620 704 620 790.500 M 661 760.935 L 661 788.176 676.750 787.824 C 694.399 787.429, 697.812 786.395, 703.739 779.645 C 707.910 774.894, 709.456 769.852, 709.456 761 C 709.456 751.558, 707.931 747.166, 702.906 742.142 C 697.247 736.482, 692.037 735.004, 675.250 734.296 L 661 733.694 661 760.935 M 478.871 752.017 C 472.306 753.127, 465.257 756.471, 459.821 761.054 C 457.247 763.224, 454.935 765, 454.682 765 C 454.429 765, 453.941 763.497, 453.596 761.660 C 453.251 759.823, 451.816 757.235, 450.407 755.910 C 447.994 753.640, 447.033 753.481, 433.923 753.174 L 420 752.849 420 814.924 L 420 877 439 877 L 458 877 458 832.674 L 458 788.349 460.250 786.236 C 463.649 783.046, 471.011 780.046, 475.500 780.024 C 480.406 779.998, 485.670 782.563, 488.429 786.322 C 490.438 789.060, 490.509 790.453, 490.790 833.072 L 491.079 877 510.040 877 L 529 877 529.022 835.250 C 529.042 796.698, 529.186 793.186, 530.905 789.401 C 533.733 783.175, 538.172 780.500, 545.677 780.500 C 552.808 780.500, 556.413 782.511, 559.248 788.071 C 560.832 791.177, 560.997 795.526, 560.998 834.250 L 561 877 580 877 L 599 877 598.985 833.250 C 598.969 785.933, 598.626 782.116, 593.473 771.947 C 587.947 761.042, 577.024 753.954, 562.669 751.959 C 545.277 749.542, 527.509 755.777, 518.636 767.410 L 515.871 771.035 511.991 765.268 C 507.105 758.005, 500.436 753.472, 492.566 752.063 C 486.027 750.892, 485.544 750.890, 478.871 752.017 M 285.257 798.750 C 285.675 848.492, 285.625 848.029, 291.678 859.149 C 295.413 866.012, 303.706 873.362, 310.753 876.055 C 321.309 880.089, 336.642 879.674, 347.314 875.067 C 349.616 874.073, 353.968 871.397, 356.983 869.122 L 362.467 864.985 364.639 869.907 C 365.834 872.614, 367.724 875.317, 368.840 875.914 C 370.013 876.542, 376.591 877, 384.442 877 L 398.015 877 397.758 815.250 L 397.500 753.500 378.750 753.228 L 360 752.956 360 796.804 L 360 840.651 357.750 842.733 C 350.516 849.426, 336.664 852.090, 330.192 848.033 C 328.322 846.860, 326.049 844.120, 324.964 841.729 C 323.169 837.775, 323.042 834.750, 323.022 795.250 L 323 753 303.936 753 L 284.873 753 285.257 798.750 M 757 754.073 C 757 754.664, 767.800 779.831, 781 810 C 794.200 840.169, 805 865.305, 805 865.857 C 805 866.408, 799.825 877.723, 793.500 891 C 787.175 904.277, 782 915.363, 782 915.635 C 782 915.907, 789.919 915.987, 799.597 915.814 L 817.194 915.500 819.347 912.788 C 821.538 910.027, 887 756.546, 887 754.169 C 887 753.140, 883.450 752.934, 870.017 753.184 L 853.033 753.500 850.167 756.500 C 847.948 758.822, 844.970 766.278, 836.987 789.500 C 831.314 806, 826.129 820.805, 825.464 822.400 L 824.254 825.301 823.005 821.400 C 821.195 815.753, 799.976 759.840, 798.817 757.665 C 796.818 753.915, 791.959 753, 774.032 753 C 762.569 753, 757 753.351, 757 754.073" stroke="none" fill="#4d77cf" fill-rule="evenodd"/><path d="M 454.750 99.125 C 429.587 111.709, 409 122.357, 409 122.788 C 409 123.220, 430.502 134.455, 456.782 147.755 L 504.564 171.937 548.333 148.618 C 572.405 135.792, 592.588 124.812, 593.183 124.217 C 593.958 123.442, 580.984 116.495, 547.382 99.691 L 500.500 76.246 454.750 99.125 M 310.087 171.388 L 257.673 197.667 307.400 222.849 L 357.126 248.030 408.531 221.265 C 436.804 206.544, 459.951 194.200, 459.968 193.834 C 460.010 192.953, 365.413 144.984, 363.772 145.055 C 363.072 145.085, 338.914 156.935, 310.087 171.388 M 593.649 168.925 C 568.981 181.956, 548.731 192.984, 548.649 193.432 C 548.567 193.880, 571.223 205.610, 598.997 219.498 L 649.493 244.751 695.747 221.630 C 721.186 208.914, 742 198.195, 742 197.811 C 742 197.426, 718.712 185.439, 690.250 171.172 L 638.500 145.233 593.649 168.925 M 452.297 242.304 C 424.685 256.752, 401.798 268.869, 401.437 269.230 C 401.076 269.591, 423.253 281.124, 450.719 294.859 L 500.657 319.832 552.078 293.799 C 580.360 279.480, 603.897 267.398, 604.382 266.950 C 605.257 266.143, 506.160 215.984, 503.754 216.017 C 503.064 216.026, 479.909 227.855, 452.297 242.304 M 720.250 254.301 L 672 278.490 672 341.745 C 672 376.535, 672.268 405, 672.596 405 C 672.924 405, 694.974 393.942, 721.596 380.426 L 770 355.851 770 292.926 C 770 258.317, 769.663 230.025, 769.250 230.056 C 768.837 230.087, 746.788 240.997, 720.250 254.301 M 576.250 325.802 L 521 353.492 521 416.829 C 521 455.561, 521.362 480.037, 521.932 479.833 C 522.445 479.650, 547.848 467.125, 578.383 452 L 633.902 424.500 633.951 361.250 C 633.990 311.262, 633.738 298.012, 632.750 298.056 C 632.063 298.087, 606.638 310.573, 576.250 325.802 M 719.770 424.348 L 672.041 448.500 672.020 512.250 C 672.007 554.270, 672.342 576, 673.004 576 C 673.556 576, 695.606 565.199, 722.004 551.998 L 770 527.996 770 463.998 C 770 413.414, 769.738 400.021, 768.750 400.098 C 768.063 400.152, 746.022 411.064, 719.770 424.348 M 576.750 496.057 L 521 524.004 521 587.926 L 521 651.848 577.250 624.080 L 633.500 596.312 633.757 532.156 C 633.899 496.870, 633.674 468.025, 633.257 468.055 C 632.841 468.085, 607.413 480.686, 576.750 496.057" stroke="none" fill="#4dabcf" fill-rule="evenodd"/></svg>