<svg fill="none" height="100" viewBox="-60.372 -45.18543865 465 30" width="100" xmlns="http://www.w3.org/2000/svg"><g fill="#ffffff"><path clip-rule="evenodd" transform="scale(3.3)" d="m318.222 -1.284 5.607-1.36zm-218.269 30.336-57.479 17c-1.756.52-3.439-.999-3.07-2.77l20.534-98.34c.384-1.838 2.926-2.13 3.728-.427l38.02 80.736c.717 1.523-.101 3.319-1.733 3.801zm9.857-4.01-44.022-93.482v-.002a7.062 7.062 0 0 0 -6.019-4.022c-2.679-.156-5.079 1.136-6.433 3.335l-47.744 77.33a7.233 7.233 0 0 0 .084 7.763l23.338 36.152c1.391 2.158 3.801 3.407 6.306 3.407.71 0 1.424-.1 2.126-.308l67.744-20.036a7.424 7.424 0 0 0 4.66-4.028 7.264 7.264 0 0 0 -.04-6.11z" fill-rule="evenodd"/></g></svg>