<svg xmlns="http://www.w3.org/2000/svg" width="1646" height="1646" viewBox="0 0 1646 1646" version="1.1"><path d="M 1339.349 362.113 C 1339.718 408.526, 1340.037 463.081, 1340.057 483.346 L 1340.094 520.192 1302.425 588.174 C 1281.135 626.599, 1265.136 656.531, 1265.628 657.018 C 1266.108 657.492, 1274.323 661.998, 1283.884 667.032 C 1297.312 674.101, 1301.457 675.879, 1302.098 674.842 C 1302.555 674.104, 1319.707 643.229, 1340.214 606.232 L 1377.500 538.963 1483.700 474.232 C 1542.109 438.629, 1589.584 409.220, 1589.200 408.879 C 1587.002 406.927, 1547.569 386.952, 1546.627 387.313 C 1541.528 389.270, 1403.243 478.849, 1387.107 490.648 L 1380.715 495.322 1381.368 489.911 C 1381.985 484.799, 1383.816 364.880, 1383.942 321.322 L 1384 301.144 1362.327 289.822 C 1350.407 283.595, 1340.209 278.326, 1339.665 278.113 C 1339.015 277.858, 1338.907 306.615, 1339.349 362.113 M 573 311.833 L 555.500 317.577 554.696 321.039 C 553.303 327.040, 503.969 670.302, 504.433 670.766 C 504.676 671.009, 513.123 668.459, 523.204 665.099 L 541.533 658.989 563.901 505.245 C 576.203 420.685, 586.447 351.298, 586.665 351.052 C 586.884 350.806, 590.986 354.461, 595.781 359.174 C 629.667 392.482, 814.370 569, 815.337 569 C 817.593 569, 851.148 557.448, 851.111 556.683 C 851.069 555.817, 591.800 305.976, 591.013 306.044 C 590.731 306.069, 582.625 308.674, 573 311.833 M 327.145 366.093 C 231.800 396.774, 153.566 422.101, 153.291 422.375 C 153.017 422.650, 151.558 430.890, 150.049 440.687 C 148.049 453.670, 147.603 458.816, 148.403 459.667 C 151.346 462.796, 447.363 663.026, 447.999 662.318 C 449.141 661.047, 454.120 625.707, 453.262 624.965 C 452.843 624.602, 394.450 584.816, 323.500 536.552 C 252.550 488.288, 193.931 448.259, 193.236 447.600 C 192.244 446.659, 224.545 435.891, 343.236 397.592 C 426.431 370.747, 494.803 348.494, 495.173 348.141 C 496.003 347.352, 501.244 313.375, 500.811 311.593 C 500.594 310.695, 448.382 327.080, 327.145 366.093 M 124 486.252 C 124 486.940, 113.011 567.153, 99.581 664.502 C 86.150 761.851, 75.013 842.840, 74.831 844.478 C 74.518 847.295, 75.316 848.018, 89.500 857.777 C 97.750 863.454, 105.175 867.917, 106 867.695 C 108.357 867.062, 418.467 687.055, 418.780 686.138 C 418.935 685.687, 412.094 680.567, 403.579 674.760 L 388.097 664.202 250.850 743.569 C 175.363 787.220, 113.482 822.816, 113.336 822.670 C 113.190 822.523, 122.725 752.001, 134.524 665.952 C 146.324 579.903, 155.983 508.743, 155.989 507.818 C 155.996 506.762, 150.222 502.200, 140.483 495.568 C 131.949 489.755, 124.749 485, 124.483 485 C 124.217 485, 124 485.563, 124 486.252 M 695.567 672.872 C 600.454 702.972, 522.471 728.086, 522.273 728.681 C 521.874 729.877, 547.289 754.320, 549.431 754.801 C 550.168 754.967, 618.823 733.680, 701.998 707.497 C 785.173 681.315, 853.341 660.029, 853.482 660.196 C 853.623 660.363, 830.871 726.200, 802.922 806.500 C 774.974 886.800, 752.083 953.181, 752.053 954.014 C 751.999 955.551, 778.591 982.781, 779.336 981.951 C 779.559 981.703, 806.157 905.713, 838.442 813.085 L 897.143 644.670 883.835 631.335 C 876.516 624.001, 870.072 618.033, 869.514 618.073 C 868.956 618.113, 790.680 642.773, 695.567 672.872 M 1181 628.143 C 1115.330 647.909, 1068.509 669.490, 1026.477 699.369 C 999.983 718.202, 970.527 745.794, 951.608 769.500 C 915.915 814.225, 890.514 867.923, 879.524 921.884 C 874.343 947.321, 873.551 956.380, 873.525 990.500 C 873.499 1023.872, 874.342 1034.381, 879.098 1060 C 881.756 1074.318, 890.184 1108, 891.108 1108 C 891.883 1108, 927.215 1092.118, 927.848 1091.485 C 928.045 1091.289, 927.050 1086.262, 925.638 1080.314 C 919.004 1052.370, 916.026 1027.020, 916.011 998.356 C 915.992 962.543, 920.282 934.450, 930.650 902.500 C 954.713 828.347, 1002.024 766.677, 1068 723.466 C 1091.765 707.901, 1109.257 698.527, 1136.500 686.759 C 1151.864 680.122, 1181.913 669.058, 1190.328 666.939 C 1192.916 666.287, 1195.219 665.454, 1195.446 665.087 C 1196.300 663.706, 1189.677 626.001, 1188.597 626.094 C 1187.994 626.145, 1184.575 627.067, 1181 628.143 M 1342.652 736.038 C 1332.836 739.241, 1324.584 742.082, 1324.315 742.352 C 1324.045 742.621, 1324.967 750.865, 1326.364 760.671 C 1327.760 770.477, 1329.477 784.125, 1330.179 791 C 1331.846 807.335, 1331.821 855.126, 1330.138 870 C 1322.737 935.382, 1302.566 987.742, 1265.657 1037.374 C 1226.932 1089.449, 1178.720 1126.196, 1117.500 1150.299 C 1099.555 1157.364, 1086.406 1161.433, 1060.399 1167.967 L 1056.298 1168.997 1056.773 1188.748 C 1057.035 1199.612, 1057.357 1208.627, 1057.490 1208.783 C 1057.889 1209.249, 1080.589 1204.189, 1094.500 1200.533 C 1204.498 1171.623, 1289.782 1103.110, 1337.967 1004.942 C 1373.800 931.941, 1383.313 849.847, 1366.929 755 C 1363.039 732.475, 1362.643 730.693, 1361.474 730.432 C 1360.938 730.312, 1352.469 732.834, 1342.652 736.038 M 456 753.759 C 446.375 756.817, 438.329 759.455, 438.121 759.622 C 437.571 760.062, 382.058 1111.391, 382.473 1111.806 C 382.747 1112.080, 419.023 1101.186, 419.661 1100.638 C 419.749 1100.562, 430.685 1032.100, 443.963 948.500 C 457.241 864.900, 468.418 795.723, 468.802 794.773 C 469.352 793.414, 493.299 816.526, 581.500 903.543 C 685.084 1005.736, 693.711 1014.001, 696.307 1013.533 C 701.226 1012.646, 731.001 1002.903, 730.978 1002.188 C 730.954 1001.404, 475.154 748.580, 474.153 748.350 C 473.794 748.267, 465.625 750.702, 456 753.759 M 1094.096 794.447 C 1079.061 799.340, 1062.541 820.387, 1061.266 836.274 C 1060.533 845.410, 1062.896 851.991, 1069.159 858.255 C 1075.957 865.052, 1081.642 867.454, 1091 867.479 C 1097.293 867.497, 1099.465 867.028, 1104.500 864.564 C 1114.528 859.657, 1126.655 845.677, 1131.153 833.839 C 1135.470 822.479, 1132.560 809.328, 1124.029 801.637 C 1115.821 794.237, 1103.691 791.323, 1094.096 794.447 M 1210 875.935 C 1197.655 879.704, 1182.707 895.401, 1177.427 910.140 C 1175.440 915.688, 1175.381 926.584, 1177.315 931.211 C 1180.781 939.506, 1190.544 947.207, 1199.826 948.967 C 1213.063 951.477, 1225.515 945.065, 1237.013 929.817 C 1250.449 911.999, 1250.988 895.689, 1238.541 883.591 C 1231.209 876.466, 1218.995 873.189, 1210 875.935 M 573.596 1108.093 C 477.949 1138.278, 399.520 1163.147, 399.310 1163.357 C 398.890 1163.777, 392.976 1200.366, 393.300 1200.542 C 393.410 1200.602, 460.720 1246.871, 542.879 1303.363 C 625.037 1359.855, 692.414 1405.919, 692.605 1405.728 C 692.796 1405.537, 694.094 1398.208, 695.489 1389.440 C 696.884 1380.673, 698.262 1372.345, 698.552 1370.933 C 699.050 1368.507, 691.952 1363.456, 568.573 1278.433 C 496.795 1228.970, 438.061 1188.275, 438.052 1188 C 438.043 1187.725, 506.315 1165.929, 589.768 1139.565 C 673.221 1113.201, 741.670 1091.506, 741.878 1091.354 C 742.393 1090.977, 748.084 1054.724, 747.759 1053.883 C 747.617 1053.514, 669.243 1077.908, 573.596 1108.093 M 796.915 1063.135 C 796.869 1063.336, 785.920 1143.150, 772.585 1240.500 L 748.339 1417.500 763.850 1427.819 C 773.316 1434.117, 780.039 1437.962, 781.100 1437.684 C 782.673 1437.273, 1089.943 1269.499, 1097.837 1264.741 L 1101.174 1262.729 1084.837 1251.921 L 1068.500 1241.113 1060.500 1245.475 C 1056.100 1247.874, 993.123 1282.259, 920.551 1321.886 C 847.979 1361.513, 788.445 1393.778, 788.253 1393.586 C 787.915 1393.248, 828.545 1090.674, 829.508 1086.350 C 829.918 1084.513, 827.915 1082.852, 815.744 1074.931 C 796.363 1062.319, 797.010 1062.725, 796.915 1063.135" stroke="none" fill="#040404" fill-rule="evenodd"/></svg>