<svg xmlns="http://www.w3.org/2000/svg" viewBox="0 0 50 50"><defs><style>.a,.c{fill:#1d1e1e;}.a,.b{fill-rule:evenodd;}.b{fill:#fff;}</style></defs><polyline class="a" points="0 29.69 25.27 29.69 50 4.95 0 4.95 0 29.69"/><path class="b" d="M29.67,9.6H24.75V21.3L20.45,9.6H16.19l-3.67,9.79c-.39-2.47-2.94-3.32-4.95-4-1.33-.43-2.73-1-2.72-1.75s.75-1.09,2.22-1a8,8,0,0,1,3.6,1l1.72-3a13.262,13.262,0,0,0-5.58-1.3h0a6.758,6.758,0,0,0-4.92,1.8A4.182,4.182,0,0,0,.7,14a3.871,3.871,0,0,0,1.69,3.44A11.636,11.636,0,0,0,5.74,19c1.36.42,2.48.79,2.46,1.57a1.086,1.086,0,0,1-.32.77,2.19,2.19,0,0,1-1.58.5,6.829,6.829,0,0,1-4.08-1.16l-1.52,3a11.305,11.305,0,0,0,5.57,1.49h.26a6.671,6.671,0,0,0,4.23-1.42l.18-.15-.49,1.32h4.47l.75-2.28A8.424,8.424,0,0,0,18.3,23a8.33,8.33,0,0,0,2.56-.39l.73,2.26h7.29v-4.7h1.59c3.84,0,6.12-2,6.12-5.24C36.59,11.28,34.38,9.6,29.67,9.6ZM18.3,19.6a4.416,4.416,0,0,1-1.58-.28l1.56-4.92h0l1.53,4.93a4.435,4.435,0,0,1-1.51.29ZM30,16.79H28.88v-4H30c1.45,0,2.6.48,2.6,2s-1.15,2-2.6,2"/><path class="c" d="M31.32,28.08a1.288,1.288,0,1,1,0,.061C31.319,28.121,31.319,28.1,31.32,28.08Zm1.3,1.61a1.605,1.605,0,1,0-.03,0Zm-.34-1.48h.32l.49.8h.32l-.53-.81a.489.489,0,0,0,.48-.5V27.69c0-.37-.22-.53-.65-.53H32V29h.28Zm0-.24V27.4h.38c.2,0,.4,0,.4.27s-.21.3-.44.3Z"/><path class="c" d="M0,44.88v-10H6.87v1.7H2v2.37H6.21v1.7H2v4.26Z"/><path class="c" d="M8.48,44.88v-10h2v10Z"/><path class="c" d="M12,39.93a6.3,6.3,0,0,1,.46-2.57A4.519,4.519,0,0,1,13.41,36a4.013,4.013,0,0,1,1.29-.9,5.625,5.625,0,0,1,2.16-.4,4.712,4.712,0,0,1,3.55,1.38,5.281,5.281,0,0,1,1.33,3.82,5.26,5.26,0,0,1-1.32,3.8,4.691,4.691,0,0,1-3.53,1.37,4.709,4.709,0,0,1-3.55-1.37A5.169,5.169,0,0,1,12,39.93Zm2.08-.07a3.741,3.741,0,0,0,.79,2.58,2.7,2.7,0,0,0,3.814.186q.1-.088.186-.186a3.851,3.851,0,0,0,.78-2.62,3.79,3.79,0,0,0-.76-2.57,2.571,2.571,0,0,0-2-.85,2.569,2.569,0,0,0-2,.86,3.778,3.778,0,0,0-.79,2.6Z"/><path class="c" d="M23.32,44.88v-10h4.26a7.367,7.367,0,0,1,2.34.27,2.311,2.311,0,0,1,1.16,1,2.911,2.911,0,0,1,.44,1.58,2.692,2.692,0,0,1-.66,1.87,3.207,3.207,0,0,1-2,.92,5.3,5.3,0,0,1,1.08.84,11.883,11.883,0,0,1,1.15,1.63l1.22,2h-2.4L28.45,42.7a12.853,12.853,0,0,0-1.07-1.48,1.488,1.488,0,0,0-.6-.41,3.186,3.186,0,0,0-1-.12h-.41v4.19Zm2-5.79h1.49A7.851,7.851,0,0,0,28.66,39a1.1,1.1,0,0,0,.57-.42,1.311,1.311,0,0,0,.21-.76,1.182,1.182,0,0,0-.27-.81,1.282,1.282,0,0,0-.77-.4H25.35Z"/><path class="c" d="M33.37,44.88v-10h2v10Z"/></svg>