<svg xmlns="http://www.w3.org/2000/svg" width="504" height="362" viewBox="0 0 504 362" version="1.1"><path d="M 358.599 29.422 C 352.146 40.433, 336.818 53.748, 322.402 60.865 C 307.240 68.351, 298.358 70.364, 273.382 71.974 C 249.386 73.522, 237.463 77.234, 225.293 86.946 C 218.931 92.023, 211.954 102.282, 208.933 111 C 204.381 124.137, 206.326 142.028, 213.301 151.172 C 218.503 157.993, 222.575 160.290, 228.172 159.561 C 235.163 158.650, 264.175 151.384, 275 147.833 C 305.932 137.686, 333.230 115.559, 348.198 88.500 C 351.491 82.546, 351.633 82.847, 349.060 90.325 C 340.209 116.051, 315.726 142.882, 289.586 155.502 C 284.589 157.914, 272.175 162.461, 262 165.605 C 251.825 168.749, 242.327 171.812, 240.894 172.411 C 238.956 173.221, 247.912 173.478, 275.894 173.414 C 310.716 173.334, 314.277 173.163, 324 171.110 C 348.721 165.888, 363.931 153.151, 371.527 131.311 C 375.318 120.409, 376.308 111.305, 375.692 93 C 375.082 74.901, 372.870 62.132, 366.524 40.085 C 361.805 23.690, 361.891 23.804, 358.599 29.422 M 210.736 167.250 C 206.123 170.753, 206.713 180.180, 211.663 182.062 C 221.380 185.756, 229.586 175.495, 222.545 168.455 C 219.799 165.708, 213.600 165.076, 210.736 167.250" stroke="none" fill="#ffffff" fill-rule="evenodd"/><path d="M 261.908 2.462 C 221.339 9.119, 188.967 38.691, 178.254 78.881 C 176.026 87.240, 175.690 90.531, 175.690 104 C 175.690 117.502, 176.024 120.751, 178.276 129.206 C 182.924 146.651, 191.447 162.147, 203.075 174.297 C 207.969 179.411, 208.830 179.992, 207.976 177.606 C 206.699 174.039, 208.301 168.445, 211.014 166.992 C 212.034 166.447, 214.494 166, 216.480 166 C 224.316 166, 227.860 174.868, 222.261 180.467 C 219.925 182.802, 218.905 183.137, 215.341 182.735 L 211.160 182.264 213.830 184.457 C 232.586 199.868, 258.624 208.109, 284 206.667 C 310.897 205.139, 333.812 194.465, 352.592 174.715 C 366.955 159.611, 376.098 141.848, 379.473 122.492 C 381.453 111.142, 381.430 89.662, 379.425 76.128 C 377.599 63.797, 371.802 40.477, 366.479 24.048 C 363.116 13.668, 362.639 12.773, 361.385 14.489 C 360.623 15.530, 360 16.811, 360 17.336 C 360 17.861, 358.117 21.342, 355.815 25.072 L 351.631 31.853 346.565 27.296 C 324.318 7.282, 291.394 -2.376, 261.908 2.462 M 358.599 29.422 C 352.146 40.433, 336.818 53.748, 322.402 60.865 C 307.240 68.351, 298.358 70.364, 273.382 71.974 C 249.386 73.522, 237.463 77.234, 225.293 86.946 C 218.931 92.023, 211.954 102.282, 208.933 111 C 204.381 124.137, 206.326 142.028, 213.301 151.172 C 218.503 157.993, 222.575 160.290, 228.172 159.561 C 235.163 158.650, 264.175 151.384, 275 147.833 C 305.932 137.686, 333.230 115.559, 348.198 88.500 C 351.491 82.546, 351.633 82.847, 349.060 90.325 C 340.209 116.051, 315.726 142.882, 289.586 155.502 C 284.589 157.914, 272.175 162.461, 262 165.605 C 251.825 168.749, 242.327 171.812, 240.894 172.411 C 238.956 173.221, 247.912 173.478, 275.894 173.414 C 310.716 173.334, 314.277 173.163, 324 171.110 C 348.721 165.888, 363.931 153.151, 371.527 131.311 C 375.318 120.409, 376.308 111.305, 375.692 93 C 375.082 74.901, 372.870 62.132, 366.524 40.085 C 361.805 23.690, 361.891 23.804, 358.599 29.422 M 135.230 229.550 C 127.680 231.583, 124.315 233.558, 117.779 239.792 L 112 245.304 112 240.552 C 112 236.481, 111.513 235.313, 108.600 232.400 C 105.636 229.436, 104.556 229, 100.177 229 C 95.952 229, 94.687 229.467, 92.214 231.940 C 90.597 233.557, 88.987 236.313, 88.637 238.065 C 87.542 243.542, 87.911 349.140, 89.040 353.205 C 90.985 360.209, 98.744 363.639, 105.447 360.458 C 111.444 357.612, 112 355.449, 112 334.957 L 112 316.815 117.250 321.560 C 142.394 344.288, 182.357 330.285, 190.460 295.907 C 192.442 287.500, 192.421 272.420, 190.416 264.644 C 183.792 238.956, 158.958 223.162, 135.230 229.550 M 435.105 229.583 C 423.600 232.676, 412.301 241.520, 406.697 251.815 C 400.594 263.028, 398.470 280.118, 401.438 294.122 C 404.573 308.910, 414.748 322.144, 427.698 328.278 C 434.184 331.350, 435.057 331.500, 446.500 331.500 C 457.341 331.500, 459.031 331.249, 464 328.903 C 467.025 327.474, 471.814 324.214, 474.643 321.656 L 479.786 317.007 478.859 321.133 C 477.620 326.647, 476.432 328.801, 472.173 333.256 C 466.952 338.718, 460.026 341, 448.673 341 C 438.433 341, 430.505 339.303, 423.016 335.508 C 414.821 331.355, 408.246 332.578, 405.026 338.855 C 403.530 341.771, 404.441 347.200, 406.770 349.246 C 413.037 354.754, 430.542 359.898, 445.500 360.626 C 475.302 362.079, 493.886 351.798, 501.317 329.748 C 503.305 323.849, 503.440 321.100, 503.745 280.500 C 504.060 238.559, 504.017 237.418, 502.012 234.190 C 495.729 224.073, 481.389 227.894, 480.226 239.996 L 479.740 245.056 476.395 241.149 C 466.932 230.093, 450.413 225.466, 435.105 229.583 M 27.314 230.857 C 13.021 235.796, 6.136 244.997, 6.044 259.282 C 5.991 267.403, 7.750 272.103, 12.799 277.336 C 17.692 282.408, 22.799 284.889, 39 290.066 C 58.311 296.236, 63 301.491, 56.092 309.223 C 53.341 312.302, 52.753 312.496, 45.160 312.841 C 35.976 313.258, 30.153 311.752, 20.216 306.391 C 12.377 302.161, 7.046 301.863, 3.455 305.455 C 0.299 308.611, 0.114 314.603, 3.057 318.345 C 5.593 321.570, 19.429 328.455, 27.460 330.490 C 36.183 332.700, 51.292 332.462, 59.298 329.990 C 67.169 327.559, 74.733 321.233, 78.147 314.228 C 81.370 307.612, 81.445 295.315, 78.298 289.405 C 74.001 281.335, 65.900 276.161, 49.225 270.835 C 32.213 265.401, 28 262.659, 28 257.019 C 28 251.507, 31.452 248.740, 39.009 248.193 C 45.966 247.690, 51.853 248.990, 61.225 253.101 C 65.996 255.193, 68.757 255.860, 70.725 255.394 C 77.262 253.848, 80.584 246.964, 77.589 241.173 C 75.693 237.506, 66.578 232.820, 56.912 230.541 C 48.031 228.448, 33.849 228.599, 27.314 230.857 M 203.766 231.918 L 200.500 234.836 200.500 280.500 L 200.500 326.164 203.766 329.082 C 209.323 334.047, 218.733 332.833, 222.242 326.699 C 223.113 325.176, 223.654 317.117, 224 300.476 L 224.500 276.452 227.787 269.779 C 232.230 260.756, 238.182 255.610, 247.415 252.805 C 256.487 250.050, 260 246.762, 260 241.027 C 260 232.240, 255.662 228.495, 246.270 229.174 C 239.485 229.665, 233.147 232.583, 227.920 237.623 L 224.339 241.075 223.144 237.088 C 220.679 228.859, 210.291 226.088, 203.766 231.918 M 271.400 232.400 L 268 235.800 268 280.500 L 268 325.200 271.400 328.600 C 274.364 331.564, 275.444 332, 279.823 332 C 284.048 332, 285.313 331.533, 287.786 329.060 C 289.403 327.443, 291.013 324.687, 291.363 322.935 C 291.713 321.183, 292 301.792, 292 279.843 C 292 236.533, 291.872 235.404, 286.486 231.168 C 284.594 229.679, 282.331 229, 279.265 229 C 275.520 229, 274.251 229.549, 271.400 232.400 M 306.770 230.966 C 302.010 234.711, 301.920 235.725, 302.219 282.365 L 302.500 326.166 305.766 329.083 C 311.323 334.047, 320.733 332.833, 324.242 326.699 C 325.140 325.129, 325.643 316.058, 326 295 L 326.500 265.500 329.277 260.777 C 334.279 252.267, 344.306 248.493, 354.241 251.382 C 360.210 253.117, 364.023 256.530, 366.662 262.500 C 368.193 265.962, 368.474 270.401, 368.753 295.500 C 368.971 315.156, 369.454 325.252, 370.252 326.835 C 373.006 332.298, 383.639 333.917, 388.314 329.585 C 389.747 328.257, 391.185 326.111, 391.510 324.816 C 391.835 323.521, 391.966 307.170, 391.800 288.481 L 391.500 254.500 388.620 248.266 C 384.932 240.280, 378.307 234.008, 370.449 231.064 C 365.481 229.202, 362.933 228.890, 355 229.174 C 343.727 229.577, 336.665 232.335, 330.102 238.898 C 326.657 242.343, 326 242.674, 326 240.968 C 326 237.152, 323.171 232.140, 320.128 230.566 C 315.912 228.386, 309.819 228.568, 306.770 230.966 M 131.698 250.383 C 118.254 255.395, 111.160 267.382, 112.225 283.290 C 112.808 292.014, 115.540 298.243, 121.270 303.916 C 134.644 317.158, 156.292 313.323, 164.689 296.224 C 167.201 291.108, 167.500 289.437, 167.500 280.500 C 167.500 272.377, 167.096 269.627, 165.351 265.851 C 162.747 260.217, 156.814 254.089, 151.544 251.588 C 146.418 249.156, 136.590 248.559, 131.698 250.383 M 443.316 250.266 C 436.263 253, 431.329 257.586, 427.861 264.630 C 424.784 270.882, 424.503 272.219, 424.540 280.479 C 424.572 287.685, 425.046 290.549, 426.898 294.714 C 429.663 300.936, 437.057 308.185, 442.556 310.066 C 448.518 312.105, 457.700 311.778, 463.089 309.335 C 485.964 298.965, 486.364 263.103, 463.737 251.357 C 459.666 249.244, 447.612 248.600, 443.316 250.266" stroke="none" fill="#6db33f" fill-rule="evenodd"/></svg>