<?xml version="1.0" encoding="UTF-8"?>
<svg version="1.1" xmlns="http://www.w3.org/2000/svg" width="300" height="300">
<path d="M0 0 C99 0 198 0 300 0 C300 99 300 198 300 300 C201 300 102 300 0 300 C0 201 0 102 0 0 Z " fill="#F7F8F9" transform="translate(0,0)"/>
<path d="M0 0 C3.3 0 6.6 0 10 0 C11.0044134 2.2898234 12.00367612 4.5816599 13 6.875 C13.28617188 7.52597656 13.57234375 8.17695313 13.8671875 8.84765625 C16 13.7734375 16 13.7734375 16 16 C16.66 16 17.32 16 18 16 C18.11214844 15.29488281 18.22429688 14.58976563 18.33984375 13.86328125 C19.06314908 10.72610488 20.19457691 8.09872094 21.5625 5.1875 C22.01753906 4.21167969 22.47257812 3.23585937 22.94140625 2.23046875 C23.29074219 1.49441406 23.64007813 0.75835937 24 0 C27.3 0 30.6 0 34 0 C34 10.56 34 21.12 34 32 C32.02 32 30.04 32 28 32 C27.67 25.07 27.34 18.14 27 11 C24.69 15.62 22.38 20.24 20 25 C17.69 25 15.38 25 13 25 C12.73445313 24.32453125 12.46890625 23.6490625 12.1953125 22.953125 C11.84210937 22.06109375 11.48890625 21.1690625 11.125 20.25 C10.77695312 19.36828125 10.42890625 18.4865625 10.0703125 17.578125 C9.14250921 15.34327037 8.08216396 13.16432791 7 11 C6.67 17.93 6.34 24.86 6 32 C4.02 32 2.04 32 0 32 C0 21.44 0 10.88 0 0 Z " fill="#1572E8" transform="translate(43,151)"/>
<path d="M0 0 C1.98 0 3.96 0 6 0 C6 3.96 6 7.92 6 12 C6.66 12 7.32 12 8 12 C8 11.34 8 10.68 8 10 C16.98737084 9.21469575 16.98737084 9.21469575 21.0625 12.375 C24.12881821 16.52936661 24.6930782 19.89210861 24 25 C21.93163543 28.98898882 20.2798841 31.53582912 16 33 C13.1848778 32.98304143 10.54084962 32.87098654 7.75 32.625 C5.1925 32.41875 2.635 32.2125 0 32 C0 21.44 0 10.88 0 0 Z " fill="#1974E8" transform="translate(196,111)"/>
<path d="M0 0 C0.72590332 0.00249756 1.45180664 0.00499512 2.19970703 0.00756836 C3.12122559 0.01667236 4.04274414 0.02577637 4.9921875 0.03515625 C7.9209375 0.05578125 10.8496875 0.07640625 13.8671875 0.09765625 C13.8671875 7.35765625 13.8671875 14.61765625 13.8671875 22.09765625 C11.2271875 22.09765625 8.5871875 22.09765625 5.8671875 22.09765625 C4.46587949 22.29053944 3.06719218 22.51002206 1.6796875 22.78515625 C-2.57673852 23.13404363 -3.89649305 22.77917808 -7.1328125 20.09765625 C-10.53608745 16.2813625 -10.63514796 13.47375859 -10.49609375 8.51171875 C-9.98707278 5.12919229 -8.62992348 3.37443391 -6.1328125 1.09765625 C-3.8362755 -0.05061225 -2.54968083 -0.0179555 0 0 Z " fill="#1D76E8" transform="translate(178.1328125,120.90234375)"/>
<path d="M0 0 C0.7734375 0.00386719 1.546875 0.00773437 2.34375 0.01171875 C4.5 0.3125 4.5 0.3125 7.5 2.3125 C7.5 1.6525 7.5 0.9925 7.5 0.3125 C9.48 0.3125 11.46 0.3125 13.5 0.3125 C13.5 7.5725 13.5 14.8325 13.5 22.3125 C10.86 22.3125 8.22 22.3125 5.5 22.3125 C4.84 22.6425 4.18 22.9725 3.5 23.3125 C-1.5069555 23.5387475 -4.66929766 23.00757747 -8.5625 19.75 C-11.07402103 15.2940756 -11.14128313 13.36260467 -10.5 8.3125 C-8.14357005 3.26300725 -5.81120618 -0.12590947 0 0 Z " fill="#1A75E8" transform="translate(99.5,120.6875)"/>
<path d="M0 0 C0.99 0.66 1.98 1.32 3 2 C3.33 1.67 3.66 1.34 4 1 C5.98 1 7.96 1 10 1 C10 8.26 10 15.52 10 23 C7.33333333 23 4.66666667 23 2 23 C1.34 23.33 0.68 23.66 0 24 C-4.05834044 24.66066007 -6.55608858 24.0456365 -9.875 21.75 C-13.05548867 18.76829187 -13.61782355 16.30770561 -13.875 12 C-13.61782355 7.69229439 -13.05548867 5.23170813 -9.875 2.25 C-6.54623134 -0.04105535 -4.06310681 -0.73874669 0 0 Z " fill="#1773E8" transform="translate(95,160)"/>
<path d="M0 0 C2.31 0 4.62 0 7 0 C7.33 3.63 7.66 7.26 8 11 C8.33 10.67 8.66 10.34 9 10 C13.6378716 9.48468093 17.66834365 9.05809673 21.5625 11.8125 C24.30884642 15.99172281 24.12094699 19.87236708 24.0625 24.6875 C24.05798828 25.38939453 24.05347656 26.09128906 24.04882812 26.81445312 C24.03706927 28.54300538 24.01913454 30.27151365 24 32 C21.69 32 19.38 32 17 32 C16.93941406 31.00097656 16.87882812 30.00195312 16.81640625 28.97265625 C16.73261719 27.68230469 16.64882812 26.39195312 16.5625 25.0625 C16.48128906 23.77472656 16.40007812 22.48695313 16.31640625 21.16015625 C16.35080812 18.13976043 16.35080812 18.13976043 15 17 C12 16.83333333 12 16.83333333 9 17 C7.05909174 18.94090826 7.60080565 22.47293902 7.4375 25.0625 C7.35371094 26.35285156 7.26992187 27.64320313 7.18359375 28.97265625 C7.12300781 29.97167969 7.06242188 30.97070312 7 32 C4.69 32 2.38 32 0 32 C0 21.44 0 10.88 0 0 Z " fill="#237AE8" transform="translate(141,111)"/>
<path d="M0 0 C9.24 0 18.48 0 28 0 C28 2.31 28 4.62 28 7 C24.7 7 21.4 7 18 7 C18 15.25 18 23.5 18 32 C15.36 32 12.72 32 10 32 C10 23.75 10 15.5 10 7 C6.7 7 3.4 7 0 7 C0 4.69 0 2.38 0 0 Z " fill="#3181E9" transform="translate(40,111)"/>
<path d="M0 0 C3.11141288 1.6437653 5.28893717 3.03036886 7.375 5.875 C8 8 8 8 8 14 C2.72 14 -2.56 14 -8 14 C-7.01 15.485 -7.01 15.485 -6 17 C-2.28359861 17.27028374 0.457201 17.180933 4 16 C4.99 16.66 5.98 17.32 7 18 C5.9958588 20.7385669 5.33822766 21.81209575 2.75 23.25 C-2.00689111 24.54733394 -4.79222822 24.66309039 -9.1875 22.25 C-13.34778049 18.92177561 -14.76867695 17.56785624 -15.5625 12.1875 C-15.42188851 7.7706451 -13.45825373 5.47626422 -10.5078125 2.34765625 C-7.2087136 -0.60102023 -4.30376605 -0.35864717 0 0 Z " fill="#1E77E8" transform="translate(213,160)"/>
<path d="M0 0 C1.98 0 3.96 0 6 0 C6 3.63 6 7.26 6 11 C7.32 10.34 8.64 9.68 10 9 C12.21875 8.84765625 12.21875 8.84765625 14.5 9.0625 C15.2528125 9.11535156 16.005625 9.16820312 16.78125 9.22265625 C20.15848324 10.40587705 21.21309393 11.91718457 23 15 C23.46184193 17.95975729 23.38015522 20.82643899 23.25 23.8125 C23.23195312 24.60076172 23.21390625 25.38902344 23.1953125 26.20117188 C23.14844048 28.13464261 23.0767041 30.06748285 23 32 C21.02 32 19.04 32 17 32 C16.92652344 30.64455078 16.92652344 30.64455078 16.8515625 29.26171875 C16.77679688 28.08222656 16.70203125 26.90273437 16.625 25.6875 C16.55539063 24.51574219 16.48578125 23.34398437 16.4140625 22.13671875 C16.21386253 18.84300113 16.21386253 18.84300113 14 16 C11.5 15.58333333 11.5 15.58333333 9 16 C6.14206684 18.85793316 6.59200059 21.14665584 6.375 25.125 C6.26285156 27.04699219 6.26285156 27.04699219 6.1484375 29.0078125 C6.09945312 29.99523437 6.05046875 30.98265625 6 32 C4.02 32 2.04 32 0 32 C0 21.44 0 10.88 0 0 Z " fill="#1472E8" transform="translate(134,151)"/>
<path d="M0 0 C3.20762789 2.05288185 4.60784475 3.38048862 5.51171875 7.11328125 C5.77852682 9.06409867 5.90001164 11.03356224 6 13 C0.72 13 -4.56 13 -10 13 C-9.67 14.32 -9.34 15.64 -9 17 C-5.05272412 17.17942163 -2.4019487 17.09350689 1 15 C1.99 15.66 2.98 16.32 4 17 C3.66411682 19.51912388 3.42645046 20.67196119 1.375 22.25 C-2.75156316 23.55312521 -6.52064536 23.37843956 -10.6875 22.3125 C-13.79785562 20.54716303 -15.20622099 19.1225042 -17 16 C-17.881146 11.98589044 -17.73563481 8.62911838 -16.03515625 4.86328125 C-11.94509777 -0.98135305 -6.70625476 -1.4290345 0 0 Z " fill="#1774E8" transform="translate(252,121)"/>
<path d="M0 0 C4.159777 0.9438716 5.68879851 2.19751162 8.41015625 5.546875 C9.17375991 8.31942253 9.3115354 10.63755996 9.41015625 13.546875 C4.13015625 13.546875 -1.14984375 13.546875 -6.58984375 13.546875 C-6.58984375 14.536875 -6.58984375 15.526875 -6.58984375 16.546875 C-4.26375805 16.92750721 -1.92929111 17.25957445 0.41015625 17.546875 C0.74015625 17.216875 1.07015625 16.886875 1.41015625 16.546875 C3.0763274 16.50623668 4.7440372 16.504154 6.41015625 16.546875 C6.74015625 17.866875 7.07015625 19.186875 7.41015625 20.546875 C2.86956062 23.20478464 -0.33056781 24.12061419 -5.58984375 23.546875 C-9.21519516 21.898988 -11.79542084 20.13572081 -13.58984375 16.546875 C-14.36724016 12.54328348 -14.33143971 9.14057926 -12.59375 5.40625 C-9.15569743 0.61440337 -5.80687962 -0.45544154 0 0 Z " fill="#1875E8" transform="translate(77.58984375,120.453125)"/>
<path d="M0 0 C4.31902671 0.35991889 5.77034973 1.24521296 8.75 4.3125 C10.00433458 8.07550374 9.85695422 11.58460909 9.8125 15.5 C9.80798828 16.24958984 9.80347656 16.99917969 9.79882812 17.77148438 C9.78706354 19.61852383 9.76912865 21.46552213 9.75 23.3125 C7.77 23.3125 5.79 23.3125 3.75 23.3125 C3.70101562 22.32507813 3.65203125 21.33765625 3.6015625 20.3203125 C3.52679688 19.03898437 3.45203125 17.75765625 3.375 16.4375 C3.30539063 15.16132813 3.23578125 13.88515625 3.1640625 12.5703125 C3.07758894 9.23188301 3.07758894 9.23188301 0.75 7.3125 C-1.75 6.97916667 -1.75 6.97916667 -4.25 7.3125 C-7.10793316 10.17043316 -6.65799941 12.45915584 -6.875 16.4375 C-6.98714844 18.35949219 -6.98714844 18.35949219 -7.1015625 20.3203125 C-7.15054688 21.30773437 -7.19953125 22.29515625 -7.25 23.3125 C-9.23 23.3125 -11.21 23.3125 -13.25 23.3125 C-13.25 16.0525 -13.25 8.7925 -13.25 1.3125 C-10.25 1.3125 -7.25 1.3125 -4.25 1.3125 C-3.25 0.3125 -3.25 0.3125 0 0 Z " fill="#1371E7" transform="translate(185.25,159.6875)"/>
<path d="M0 0 C3.4375 1.75 3.4375 1.75 6 4 C6 5.32 6 6.64 6 8 C3.625 8.625 3.625 8.625 1 9 C0.34 8.34 -0.32 7.68 -1 7 C-3.5 6.58333333 -3.5 6.58333333 -6 7 C-8.35014158 9.837578 -8.35014158 9.837578 -7.6875 13.125 C-7.29355679 15.88086422 -7.29355679 15.88086422 -6 17 C-3.54190002 17.2500773 -3.54190002 17.2500773 -1 17 C-0.34 16.34 0.32 15.68 1 15 C3.625 15.375 3.625 15.375 6 16 C6 17.32 6 18.64 6 20 C2.84632965 22.7690764 0.66682226 23.90473968 -3.5 24.5 C-8.25930086 23.82009988 -11.38696372 22.05295527 -14.375 18.25 C-15.66468814 13.60712268 -15.66450886 9.57383678 -13.8125 5.1875 C-9.84466291 0.3987311 -6.15620672 -0.75602539 0 0 Z " fill="#1B75E8" transform="translate(124,160)"/>
<path d="M0 0 C3.125 2 3.125 2 5 4 C4.34 5.32 3.68 6.64 3 8 C2.484375 7.835 1.96875 7.67 1.4375 7.5 C-1.75195119 6.8457536 -4.75385905 6.87750412 -8 7 C-9.20561184 7.98267859 -9.20561184 7.98267859 -9.09765625 9.84765625 C-9.08605469 10.57855469 -9.07445313 11.30945313 -9.0625 12.0625 C-9.041875 13.361875 -9.02125 14.66125 -9 16 C-3.2025577 16.24428343 -3.2025577 16.24428343 2 14 C2.99 14.66 3.98 15.32 5 16 C4.875 17.8125 4.875 17.8125 4 20 C-0.33634562 23.14385057 -3.84169449 23.36785984 -8.94921875 22.578125 C-12.69836785 21.52122202 -14.18299087 19.2255137 -16.25 16.125 C-17.28900544 13.18115124 -17.37319234 11.1099362 -17 8 C-12.72685522 0.33780935 -8.4059094 -1.15112772 0 0 Z " fill="#1974E8" transform="translate(133,121)"/>
<path d="M0 0 C2.5 0.125 2.5 0.125 3.5 1.125 C3.58748207 3.05167507 3.60697334 4.98151861 3.59765625 6.91015625 C3.59443359 8.07998047 3.59121094 9.24980469 3.58789062 10.45507812 C3.57951172 11.68677734 3.57113281 12.91847656 3.5625 14.1875 C3.55798828 15.42306641 3.55347656 16.65863281 3.54882812 17.93164062 C3.53699608 20.99614117 3.52051173 24.06054721 3.5 27.125 C4.49 27.125 5.48 27.125 6.5 27.125 C6.5 28.775 6.5 30.425 6.5 32.125 C5.22125 32.186875 3.9425 32.24875 2.625 32.3125 C1.54605469 32.36470703 1.54605469 32.36470703 0.4453125 32.41796875 C-0.19664062 32.32128906 -0.83859375 32.22460938 -1.5 32.125 C-3.88094585 28.55358123 -3.74558937 26.97773884 -3.73046875 22.7421875 C-3.72853516 21.49308594 -3.72660156 20.24398437 -3.72460938 18.95703125 C-3.71236328 17.65121094 -3.70011719 16.34539062 -3.6875 15 C-3.68685547 13.68644531 -3.68621094 12.37289062 -3.68554688 11.01953125 C-3.63511255 0.18175563 -3.63511255 0.18175563 0 0 Z " fill="#1E78E8" transform="translate(226.5,110.875)"/>
<path d="M0 0 C0.33 0 0.66 0 1 0 C1 10.56 1 21.12 1 32 C0.01 30.68 -0.98 29.36 -2 28 C-3.33378575 26.1645201 -3.33378575 26.1645201 -5 25 C-7.13745922 25.25146579 -8.45925779 25.45925779 -10 27 C-12.375 27.3125 -12.375 27.3125 -15 27 C-16.875 25.375 -16.875 25.375 -18 23 C-17.77962372 19.32706204 -17.63033454 17.63033454 -15 15 C-12.5 14.75 -12.5 14.75 -10 15 C-9.34 15.66 -8.68 16.32 -8 17 C-4.70285207 16.67028521 -3.3773161 16.3773161 -1 14 C-0.69940057 11.63490639 -0.50484988 9.25558119 -0.375 6.875 C-0.30023438 5.59367188 -0.22546875 4.31234375 -0.1484375 2.9921875 C-0.09945312 2.00476563 -0.05046875 1.01734375 0 0 Z " fill="#E3EBF7" transform="translate(133,151)"/>
<path d="M0 0 C1.98 0 3.96 0 6 0 C6 7.26 6 14.52 6 22 C4.02 22 2.04 22 0 22 C0 14.74 0 7.48 0 0 Z " fill="#0F71E7" transform="translate(161,161)"/>
<path d="M0 0 C1.875 1.0625 1.875 1.0625 3 3 C2.66666667 9.33333333 2.66666667 9.33333333 0 12 C-2.80984248 12.36023622 -4.38241919 12.38332602 -6.8125 10.875 C-8.55198782 8.12844028 -8.39769128 6.18153026 -8 3 C-5.90534242 -0.30735407 -3.75951639 -0.56392746 0 0 Z " fill="#E9EFF8" transform="translate(96,166)"/>
<path d="M0 0 C1.9375 1.125 1.9375 1.125 3 3 C2.77669287 6.64734979 2.61627165 8.38372835 0 11 C-3.13704316 11.333728 -5.16554166 11.52849028 -7.875 9.8125 C-9.40659584 7.34492892 -9.42822025 5.85480169 -9 3 C-6.73529086 -0.64869805 -4.03159541 -0.50394943 0 0 Z " fill="#E8EEF8" transform="translate(211,127)"/>
<path d="M0 0 C3.5625 0.1875 3.5625 0.1875 5.5625 2.1875 C5.875 5.6875 5.875 5.6875 5.5625 9.1875 C2.32996204 11.34252531 1.31099077 11.65606135 -2.4375 11.1875 C-4.3125 10.125 -4.3125 10.125 -5.4375 8.1875 C-4.89124449 0.26679515 -4.89124449 0.26679515 0 0 Z " fill="#EBF0F8" transform="translate(179.4375,126.8125)"/>
<path d="M0 0 C3 0.25 3 0.25 5 2.25 C5.3125 5.75 5.3125 5.75 5 9.25 C1.77626323 11.39915785 0.73296326 11.63286803 -3 11.25 C-5 9.25 -5 9.25 -5.25 5.75 C-4.93427155 1.32980166 -4.46370491 0.37197541 0 0 Z " fill="#F2F5F9" transform="translate(101,126.75)"/>
<path d="M0 0 C3.53571429 0.53571429 3.53571429 0.53571429 5 2 C5.04063832 3.66617115 5.042721 5.33388095 5 7 C3.0085944 7.38133299 1.00720923 7.71325582 -1 8 C-2 7 -2 7 -2.1875 4.5625 C-2 2 -2 2 0 0 Z " fill="#1875E8" transform="translate(163,150)"/>
<path d="M0 0 C1.79158489 -0.02696365 3.58328473 -0.04637917 5.375 -0.0625 C6.37273437 -0.07410156 7.37046875 -0.08570313 8.3984375 -0.09765625 C11 0 11 0 13 1 C13 1.66 13 2.32 13 3 C11.67288808 3.35729936 10.33737094 3.68325425 9 4 C7.4840625 4.37125 7.4840625 4.37125 5.9375 4.75 C3 5 3 5 1.125 3.6875 C0 2 0 2 0 0 Z " fill="#E5ECF7" transform="translate(242,134)"/>
<path d="M0 0 C3.63 0 7.26 0 11 0 C11.33 0.99 11.66 1.98 12 3 C8.21572356 4.83807713 6.04711146 5.2031953 2 4 C1.34 3.67 0.68 3.34 0 3 C0 2.01 0 1.02 0 0 Z " fill="#E3EAF7" transform="translate(71,134)"/>
<path d="M0 0 C1.62463842 -0.05395478 3.24978541 -0.09277195 4.875 -0.125 C5.77992188 -0.14820313 6.68484375 -0.17140625 7.6171875 -0.1953125 C10 0 10 0 12 2 C8.3558226 4.4294516 6.28758728 4.16179575 2 4 C1.34 2.68 0.68 1.36 0 0 Z " fill="#E9EFF8" transform="translate(205,174)"/>
<path d="M0 0 C2.4375 0.1875 2.4375 0.1875 5 1 C5.66 2.32 6.32 3.64 7 5 C3.7 5 0.4 5 -3 5 C-1 1 -1 1 0 0 Z " fill="#CEDCF5" transform="translate(208,165)"/>
<path d="M0 0 C1.98 0 3.96 0 6 0 C6.66 1.32 7.32 2.64 8 4 C4.7 4 1.4 4 -2 4 C-1.34 2.68 -0.68 1.36 0 0 Z " fill="#DFE8F7" transform="translate(244,126)"/>
<path d="M0 0 C2.31 0.33 4.62 0.66 7 1 C7 1.99 7 2.98 7 4 C4.03 4 1.06 4 -2 4 C-1.34 2.68 -0.68 1.36 0 0 Z " fill="#E5ECF8" transform="translate(73,126)"/>
</svg>
